<svg width="229" height="47" viewBox="0 0 229 47" fill="none" xmlns="http://www.w3.org/2000/svg">
<g clip-path="url(#clip0_74_3)">
<path d="M228.075 25.7678C229.051 24.7915 229.051 23.2085 228.075 22.2322L212.165 6.32233C211.189 5.34602 209.606 5.34602 208.63 6.32233C207.653 7.29864 207.653 8.88155 208.63 9.85786L222.772 24L208.63 38.1421C207.653 39.1184 207.653 40.7014 208.63 41.6777C209.606 42.654 211.189 42.654 212.165 41.6777L228.075 25.7678ZM178 26.5H226.307V21.5H178V26.5Z" fill="#E1E8EB"/>
<path d="M0.402344 35V32.4365L2.67285 31.9971V16.6895L0.402344 16.25V13.6719H9.87988C12.3896 13.6719 14.3477 14.1602 15.7539 15.1367C17.1602 16.1133 17.8633 17.5732 17.8633 19.5166C17.8633 20.5029 17.5996 21.3867 17.0723 22.168C16.5547 22.9395 15.7979 23.5205 14.8018 23.9111C16.0811 24.1846 17.0381 24.7705 17.6729 25.6689C18.3174 26.5674 18.6396 27.6074 18.6396 28.7891C18.6396 30.8301 17.9658 32.3779 16.6182 33.4326C15.2705 34.4775 13.3613 35 10.8906 35H0.402344ZM6.9502 22.6074H10.0264C11.1689 22.6074 12.0479 22.373 12.6631 21.9043C13.2783 21.4355 13.5859 20.752 13.5859 19.8535C13.5859 17.9297 12.3506 16.9678 9.87988 16.9678H6.9502V22.6074ZM6.9502 31.7188H10.8906C13.2148 31.7188 14.377 30.7422 14.377 28.7891C14.377 27.7441 14.123 26.9482 13.6152 26.4014C13.1074 25.8447 12.3066 25.5664 11.2129 25.5664H6.9502V31.7188ZM27.751 35.3076C26.1787 35.3076 24.8311 34.9658 23.708 34.2822C22.5947 33.5986 21.7402 32.6514 21.1445 31.4404C20.5488 30.2197 20.251 28.8184 20.251 27.2363V26.9287C20.251 25.3564 20.5488 23.9648 21.1445 22.7539C21.7402 21.5332 22.5947 20.5811 23.708 19.8975C24.8311 19.2041 26.1689 18.8574 27.7217 18.8574C29.2842 18.8574 30.6221 19.1992 31.7354 19.8828C32.8584 20.5664 33.7178 21.5186 34.3135 22.7393C34.9092 23.9502 35.207 25.3467 35.207 26.9287V27.2363C35.207 28.8184 34.9092 30.2197 34.3135 31.4404C33.7178 32.6514 32.8633 33.5986 31.75 34.2822C30.6367 34.9658 29.3037 35.3076 27.751 35.3076ZM27.751 32.0264C28.8545 32.0264 29.6602 31.5869 30.168 30.708C30.6855 29.8291 30.9443 28.6719 30.9443 27.2363V26.9287C30.9443 25.5225 30.6855 24.375 30.168 23.4863C29.6504 22.5977 28.835 22.1533 27.7217 22.1533C26.6084 22.1533 25.7979 22.5977 25.29 23.4863C24.7822 24.375 24.5283 25.5225 24.5283 26.9287V27.2363C24.5283 28.6816 24.7822 29.8438 25.29 30.7227C25.7979 31.5918 26.6182 32.0264 27.751 32.0264ZM44.8604 35.3076C43.2881 35.3076 41.9404 34.9658 40.8174 34.2822C39.7041 33.5986 38.8496 32.6514 38.2539 31.4404C37.6582 30.2197 37.3604 28.8184 37.3604 27.2363V26.9287C37.3604 25.3564 37.6582 23.9648 38.2539 22.7539C38.8496 21.5332 39.7041 20.5811 40.8174 19.8975C41.9404 19.2041 43.2783 18.8574 44.8311 18.8574C46.3936 18.8574 47.7314 19.1992 48.8447 19.8828C49.9678 20.5664 50.8271 21.5186 51.4229 22.7393C52.0186 23.9502 52.3164 25.3467 52.3164 26.9287V27.2363C52.3164 28.8184 52.0186 30.2197 51.4229 31.4404C50.8271 32.6514 49.9727 33.5986 48.8594 34.2822C47.7461 34.9658 46.4131 35.3076 44.8604 35.3076ZM44.8604 32.0264C45.9639 32.0264 46.7695 31.5869 47.2773 30.708C47.7949 29.8291 48.0537 28.6719 48.0537 27.2363V26.9287C48.0537 25.5225 47.7949 24.375 47.2773 23.4863C46.7598 22.5977 45.9443 22.1533 44.8311 22.1533C43.7178 22.1533 42.9072 22.5977 42.3994 23.4863C41.8916 24.375 41.6377 25.5225 41.6377 26.9287V27.2363C41.6377 28.6816 41.8916 29.8438 42.3994 30.7227C42.9072 31.5918 43.7275 32.0264 44.8604 32.0264ZM53.708 35V32.4365L55.7734 31.9971V15.166L53.4883 14.7266V12.1484H60.0361V25.9912L64.416 21.9775L64.4453 21.9336L62.8193 21.6992V19.1504H71.0664V21.7285L69.0156 22.2412L65.0312 25.8008L69.7627 31.9824L71.7256 32.4365V35H63.8008V32.5684L65.002 32.29L64.9727 32.2314L62.1455 28.3789L60.0361 30.2686V31.9971L61.8818 32.4365V35H53.708ZM86.7988 35.3076C85.3242 35.3076 84.1865 34.9023 83.3857 34.0918C82.5947 33.2812 82.1992 31.9971 82.1992 30.2393V22.1533H80.0166V19.1504H82.1992V15.2686H86.4619V19.1504H89.377V22.1533H86.4619V30.2246C86.4619 30.8398 86.5889 31.2793 86.8428 31.543C87.1064 31.8066 87.4629 31.9385 87.9121 31.9385C88.1465 31.9385 88.4004 31.9238 88.6738 31.8945C88.9473 31.8555 89.1816 31.8164 89.377 31.7773L89.7432 34.8682C89.3135 34.9951 88.8398 35.0977 88.3223 35.1758C87.8047 35.2637 87.2969 35.3076 86.7988 35.3076ZM91.6035 35V32.4365L93.6689 31.9971V22.168L91.3838 21.7285V19.1504H97.9463V31.9971L99.9971 32.4365V35H91.6035ZM93.5225 15.7959V12.1484H97.9463V15.7959H93.5225ZM108.889 35.3076C107.365 35.3076 106.047 34.9658 104.934 34.2822C103.83 33.5986 102.98 32.6562 102.385 31.4551C101.789 30.2539 101.491 28.8721 101.491 27.3096V26.8701C101.491 25.3174 101.794 23.9404 102.399 22.7393C103.005 21.5283 103.859 20.5811 104.963 19.8975C106.066 19.2041 107.365 18.8574 108.859 18.8574C110.275 18.8574 111.501 19.082 112.536 19.5312C113.571 19.9707 114.411 20.4834 115.056 21.0693L115.026 25.6104H111.804L111.232 22.7832C110.998 22.5488 110.7 22.3584 110.339 22.2119C109.978 22.0654 109.611 21.9922 109.24 21.9922C108.068 21.9922 107.194 22.4268 106.618 23.2959C106.052 24.1553 105.769 25.3467 105.769 26.8701V27.3096C105.769 28.9404 106.076 30.1367 106.691 30.8984C107.307 31.6504 108.049 32.0264 108.918 32.0264C109.67 32.0264 110.271 31.8311 110.72 31.4404C111.179 31.04 111.496 30.4785 111.672 29.7559H115.319L115.363 29.8438C115.109 31.5332 114.484 32.8662 113.488 33.8428C112.492 34.8193 110.959 35.3076 108.889 35.3076ZM117.048 35V32.4365L119.113 31.9971V15.166L116.828 14.7266V12.1484H123.376V25.9912L127.756 21.9775L127.785 21.9336L126.159 21.6992V19.1504H134.406V21.7285L132.355 22.2412L128.371 25.8008L133.103 31.9824L135.065 32.4365V35H127.141V32.5684L128.342 32.29L128.312 32.2314L125.485 28.3789L123.376 30.2686V31.9971L125.222 32.4365V35H117.048ZM143.356 35.3076C141.833 35.3076 140.505 34.9756 139.372 34.3115C138.249 33.6377 137.375 32.7148 136.75 31.543C136.135 30.3711 135.827 29.0332 135.827 27.5293V26.9434C135.827 25.3711 136.12 23.9795 136.706 22.7686C137.292 21.5479 138.117 20.5908 139.182 19.8975C140.256 19.1943 141.521 18.8477 142.976 18.8574C145.114 18.8574 146.75 19.4873 147.883 20.7471C149.016 21.9971 149.582 23.7549 149.582 26.0205V28.3496H140.266L140.236 28.4375C140.314 29.4824 140.661 30.3418 141.276 31.0156C141.892 31.6895 142.766 32.0264 143.898 32.0264C144.68 32.0264 145.407 31.9287 146.081 31.7334C146.765 31.5283 147.429 31.2305 148.073 30.8398L149.23 33.4766C148.576 34.0039 147.751 34.4434 146.755 34.7949C145.769 35.1367 144.636 35.3076 143.356 35.3076ZM140.295 25.5225H145.583V25.1416C145.583 24.1846 145.383 23.4277 144.982 22.8711C144.592 22.3047 143.947 22.0215 143.049 22.0215C142.189 22.0215 141.535 22.3486 141.086 23.0029C140.637 23.6475 140.358 24.4629 140.251 25.4492L140.295 25.5225ZM157.785 35.3076C156.311 35.3076 155.173 34.9023 154.372 34.0918C153.581 33.2812 153.186 31.9971 153.186 30.2393V22.1533H151.003V19.1504H153.186V15.2686H157.448V19.1504H160.363V22.1533H157.448V30.2246C157.448 30.8398 157.575 31.2793 157.829 31.543C158.093 31.8066 158.449 31.9385 158.898 31.9385C159.133 31.9385 159.387 31.9238 159.66 31.8945C159.934 31.8555 160.168 31.8164 160.363 31.7773L160.729 34.8682C160.3 34.9951 159.826 35.0977 159.309 35.1758C158.791 35.2637 158.283 35.3076 157.785 35.3076Z" fill="#E1E8EB"/>
</g>
<defs>
<clipPath id="clip0_74_3">
<rect width="229" height="47" fill="white"/>
</clipPath>
</defs>
</svg>
