<svg width="208" height="86" viewBox="0 0 208 86" fill="none" xmlns="http://www.w3.org/2000/svg">
<path d="M101.1 25.1426C101.1 23.502 101.299 22.1953 101.697 21.2227C102.096 20.25 102.822 19.2949 103.877 18.3574C104.943 17.4082 105.652 16.6406 106.004 16.0547C106.355 15.457 106.531 14.8301 106.531 14.1738C106.531 12.1934 105.617 11.2031 103.789 11.2031C102.922 11.2031 102.225 11.4727 101.697 12.0117C101.182 12.5391 100.912 13.2715 100.889 14.209H95.791C95.8145 11.9707 96.5352 10.2188 97.9531 8.95312C99.3828 7.6875 101.328 7.05469 103.789 7.05469C106.273 7.05469 108.201 7.6582 109.572 8.86523C110.943 10.0605 111.629 11.7539 111.629 13.9453C111.629 14.9414 111.406 15.8848 110.961 16.7754C110.516 17.6543 109.736 18.6328 108.623 19.7109L107.199 21.0645C106.309 21.9199 105.799 22.9219 105.67 24.0703L105.6 25.1426H101.1ZM100.59 30.5391C100.59 29.7539 100.854 29.1094 101.381 28.6055C101.92 28.0898 102.605 27.832 103.438 27.832C104.27 27.832 104.949 28.0898 105.477 28.6055C106.016 29.1094 106.285 29.7539 106.285 30.5391C106.285 31.3125 106.021 31.9512 105.494 32.4551C104.979 32.959 104.293 33.2109 103.438 33.2109C102.582 33.2109 101.891 32.959 101.363 32.4551C100.848 31.9512 100.59 31.3125 100.59 30.5391Z" fill="#FFC108"/>
<path d="M53.2598 55H50.3301V48.9062H44.6172V55H41.6875V40.7812H44.6172V46.543H50.3301V40.7812H53.2598V55ZM55.2031 49.6191C55.2031 48.571 55.4049 47.6367 55.8086 46.8164C56.2122 45.9961 56.7917 45.3613 57.5469 44.9121C58.3086 44.4629 59.1908 44.2383 60.1934 44.2383C61.6191 44.2383 62.7812 44.6745 63.6797 45.5469C64.5846 46.4193 65.0892 47.6042 65.1934 49.1016L65.2129 49.8242C65.2129 51.4453 64.7604 52.7474 63.8555 53.7305C62.9505 54.707 61.7363 55.1953 60.2129 55.1953C58.6895 55.1953 57.472 54.707 56.5605 53.7305C55.6556 52.7539 55.2031 51.4258 55.2031 49.7461V49.6191ZM58.0254 49.8242C58.0254 50.8268 58.2142 51.5951 58.5918 52.1289C58.9694 52.6562 59.5098 52.9199 60.2129 52.9199C60.8965 52.9199 61.4303 52.6595 61.8145 52.1387C62.1986 51.6113 62.3906 50.7715 62.3906 49.6191C62.3906 48.6361 62.1986 47.8743 61.8145 47.334C61.4303 46.7936 60.89 46.5234 60.1934 46.5234C59.5033 46.5234 58.9694 46.7936 58.5918 47.334C58.2142 47.8678 58.0254 48.6979 58.0254 49.8242ZM76.1406 51.1621L77.5273 44.4336H80.252L77.5566 55H75.1934L73.1914 48.3496L71.1895 55H68.8359L66.1406 44.4336H68.8652L70.2422 51.1523L72.1758 44.4336H74.2168L76.1406 51.1621ZM90.0176 41.8359V44.4336H91.8242V46.5039H90.0176V51.7773C90.0176 52.168 90.0924 52.4479 90.2422 52.6172C90.3919 52.7865 90.6784 52.8711 91.1016 52.8711C91.4141 52.8711 91.6908 52.8483 91.9316 52.8027V54.9414C91.3783 55.1107 90.8086 55.1953 90.2227 55.1953C88.2435 55.1953 87.2344 54.196 87.1953 52.1973V46.5039H85.6523V44.4336H87.1953V41.8359H90.0176ZM92.6641 49.6191C92.6641 48.571 92.8659 47.6367 93.2695 46.8164C93.6732 45.9961 94.2526 45.3613 95.0078 44.9121C95.7695 44.4629 96.6517 44.2383 97.6543 44.2383C99.0801 44.2383 100.242 44.6745 101.141 45.5469C102.046 46.4193 102.55 47.6042 102.654 49.1016L102.674 49.8242C102.674 51.4453 102.221 52.7474 101.316 53.7305C100.411 54.707 99.1973 55.1953 97.6738 55.1953C96.1504 55.1953 94.9329 54.707 94.0215 53.7305C93.1165 52.7539 92.6641 51.4258 92.6641 49.7461V49.6191ZM95.4863 49.8242C95.4863 50.8268 95.6751 51.5951 96.0527 52.1289C96.4303 52.6562 96.9707 52.9199 97.6738 52.9199C98.3574 52.9199 98.8913 52.6595 99.2754 52.1387C99.6595 51.6113 99.8516 50.7715 99.8516 49.6191C99.8516 48.6361 99.6595 47.8743 99.2754 47.334C98.8913 46.7936 98.3509 46.5234 97.6543 46.5234C96.9642 46.5234 96.4303 46.7936 96.0527 47.334C95.6751 47.8678 95.4863 48.6979 95.4863 49.8242ZM118.914 49.8145C118.914 51.5072 118.553 52.8288 117.83 53.7793C117.107 54.7233 116.098 55.1953 114.803 55.1953C113.657 55.1953 112.742 54.7559 112.059 53.877L111.932 55H109.393V40H112.215V45.3809C112.866 44.6191 113.722 44.2383 114.783 44.2383C116.072 44.2383 117.081 44.7135 117.811 45.6641C118.546 46.6081 118.914 47.9395 118.914 49.6582V49.8145ZM116.092 49.6094C116.092 48.5417 115.923 47.7637 115.584 47.2754C115.245 46.7806 114.741 46.5332 114.07 46.5332C113.172 46.5332 112.553 46.901 112.215 47.6367V51.8066C112.56 52.5488 113.185 52.9199 114.09 52.9199C115.001 52.9199 115.6 52.4707 115.887 51.5723C116.023 51.1426 116.092 50.4883 116.092 49.6094ZM120.223 49.6191C120.223 48.571 120.424 47.6367 120.828 46.8164C121.232 45.9961 121.811 45.3613 122.566 44.9121C123.328 44.4629 124.21 44.2383 125.213 44.2383C126.639 44.2383 127.801 44.6745 128.699 45.5469C129.604 46.4193 130.109 47.6042 130.213 49.1016L130.232 49.8242C130.232 51.4453 129.78 52.7474 128.875 53.7305C127.97 54.707 126.756 55.1953 125.232 55.1953C123.709 55.1953 122.492 54.707 121.58 53.7305C120.675 52.7539 120.223 51.4258 120.223 49.7461V49.6191ZM123.045 49.8242C123.045 50.8268 123.234 51.5951 123.611 52.1289C123.989 52.6562 124.529 52.9199 125.232 52.9199C125.916 52.9199 126.45 52.6595 126.834 52.1387C127.218 51.6113 127.41 50.7715 127.41 49.6191C127.41 48.6361 127.218 47.8743 126.834 47.334C126.45 46.7936 125.91 46.5234 125.213 46.5234C124.523 46.5234 123.989 46.7936 123.611 47.334C123.234 47.8678 123.045 48.6979 123.045 49.8242ZM131.531 49.6191C131.531 48.571 131.733 47.6367 132.137 46.8164C132.54 45.9961 133.12 45.3613 133.875 44.9121C134.637 44.4629 135.519 44.2383 136.521 44.2383C137.947 44.2383 139.109 44.6745 140.008 45.5469C140.913 46.4193 141.417 47.6042 141.521 49.1016L141.541 49.8242C141.541 51.4453 141.089 52.7474 140.184 53.7305C139.279 54.707 138.064 55.1953 136.541 55.1953C135.018 55.1953 133.8 54.707 132.889 53.7305C131.984 52.7539 131.531 51.4258 131.531 49.7461V49.6191ZM134.354 49.8242C134.354 50.8268 134.542 51.5951 134.92 52.1289C135.298 52.6562 135.838 52.9199 136.541 52.9199C137.225 52.9199 137.758 52.6595 138.143 52.1387C138.527 51.6113 138.719 50.7715 138.719 49.6191C138.719 48.6361 138.527 47.8743 138.143 47.334C137.758 46.7936 137.218 46.5234 136.521 46.5234C135.831 46.5234 135.298 46.7936 134.92 47.334C134.542 47.8678 134.354 48.6979 134.354 49.8242ZM147.117 50.7617L146.102 51.7773V55H143.279V40H146.102V48.3105L146.648 47.6074L149.354 44.4336H152.742L148.924 48.8379L153.074 55H149.832L147.117 50.7617ZM165.066 55C164.936 54.7461 164.842 54.4303 164.783 54.0527C164.1 54.8145 163.211 55.1953 162.117 55.1953C161.082 55.1953 160.223 54.8958 159.539 54.2969C158.862 53.6979 158.523 52.9427 158.523 52.0312C158.523 50.9115 158.937 50.0521 159.764 49.4531C160.597 48.8542 161.798 48.5514 163.367 48.5449H164.666V47.9395C164.666 47.4512 164.539 47.0605 164.285 46.7676C164.038 46.4746 163.644 46.3281 163.104 46.3281C162.628 46.3281 162.254 46.4421 161.98 46.6699C161.714 46.8978 161.58 47.2103 161.58 47.6074H158.758C158.758 46.9954 158.947 46.429 159.324 45.9082C159.702 45.3874 160.236 44.9805 160.926 44.6875C161.616 44.388 162.391 44.2383 163.25 44.2383C164.552 44.2383 165.584 44.5671 166.346 45.2246C167.114 45.8757 167.498 46.7936 167.498 47.9785V52.5586C167.505 53.5612 167.645 54.3197 167.918 54.834V55H165.066ZM162.732 53.0371C163.149 53.0371 163.533 52.946 163.885 52.7637C164.236 52.5749 164.497 52.3242 164.666 52.0117V50.1953H163.611C162.199 50.1953 161.447 50.6836 161.355 51.6602L161.346 51.8262C161.346 52.1777 161.469 52.4674 161.717 52.6953C161.964 52.9232 162.303 53.0371 162.732 53.0371ZM83.6797 64.8359V67.4336H85.4863V69.5039H83.6797V74.7773C83.6797 75.168 83.7546 75.4479 83.9043 75.6172C84.054 75.7865 84.3405 75.8711 84.7637 75.8711C85.0762 75.8711 85.3529 75.8483 85.5938 75.8027V77.9414C85.0404 78.1107 84.4707 78.1953 83.8848 78.1953C81.9056 78.1953 80.8965 77.196 80.8574 75.1973V69.5039H79.3145V67.4336H80.8574V64.8359H83.6797ZM90.0371 78H87.2051V67.4336H90.0371V78ZM87.0391 64.6992C87.0391 64.276 87.179 63.9277 87.459 63.6543C87.7454 63.3809 88.1328 63.2441 88.6211 63.2441C89.1029 63.2441 89.487 63.3809 89.7734 63.6543C90.0599 63.9277 90.2031 64.276 90.2031 64.6992C90.2031 65.1289 90.0566 65.4805 89.7637 65.7539C89.4772 66.0273 89.0964 66.1641 88.6211 66.1641C88.1458 66.1641 87.7617 66.0273 87.4688 65.7539C87.1823 65.4805 87.0391 65.1289 87.0391 64.6992ZM96.7656 75.9199C97.2865 75.9199 97.7096 75.7767 98.0352 75.4902C98.3607 75.2038 98.5299 74.8229 98.543 74.3477H101.189C101.183 75.0638 100.988 75.7214 100.604 76.3203C100.219 76.9128 99.6921 77.375 99.0215 77.707C98.3574 78.0326 97.6217 78.1953 96.8145 78.1953C95.304 78.1953 94.1126 77.7168 93.2402 76.7598C92.3678 75.7962 91.9316 74.4681 91.9316 72.7754V72.5898C91.9316 70.9622 92.3646 69.6634 93.2305 68.6934C94.0964 67.7233 95.2845 67.2383 96.7949 67.2383C98.1165 67.2383 99.1745 67.6159 99.9688 68.3711C100.77 69.1198 101.176 70.1191 101.189 71.3691H98.543C98.5299 70.8223 98.3607 70.3796 98.0352 70.041C97.7096 69.696 97.2799 69.5234 96.7461 69.5234C96.0885 69.5234 95.5905 69.7643 95.252 70.2461C94.9199 70.7214 94.7539 71.4961 94.7539 72.5703V72.8633C94.7539 73.9505 94.9199 74.7318 95.252 75.207C95.584 75.6823 96.0885 75.9199 96.7656 75.9199ZM106.639 73.7617L105.623 74.7773V78H102.801V63H105.623V71.3105L106.17 70.6074L108.875 67.4336H112.264L108.445 71.8379L112.596 78H109.354L106.639 73.7617ZM118.152 78.1953C116.603 78.1953 115.34 77.7201 114.363 76.7695C113.393 75.819 112.908 74.5527 112.908 72.9707V72.6973C112.908 71.6361 113.113 70.6888 113.523 69.8555C113.934 69.0156 114.513 68.3711 115.262 67.9219C116.017 67.4661 116.876 67.2383 117.84 67.2383C119.285 67.2383 120.421 67.694 121.248 68.6055C122.081 69.5169 122.498 70.8092 122.498 72.4824V73.6348H115.77C115.861 74.3249 116.134 74.8783 116.59 75.2949C117.052 75.7116 117.635 75.9199 118.338 75.9199C119.425 75.9199 120.275 75.526 120.887 74.7383L122.273 76.291C121.85 76.89 121.277 77.3587 120.555 77.6973C119.832 78.0293 119.031 78.1953 118.152 78.1953ZM117.83 69.5234C117.27 69.5234 116.814 69.7122 116.463 70.0898C116.118 70.4674 115.896 71.0078 115.799 71.7109H119.725V71.4863C119.712 70.8613 119.542 70.3796 119.217 70.041C118.891 69.696 118.429 69.5234 117.83 69.5234ZM127.488 64.8359V67.4336H129.295V69.5039H127.488V74.7773C127.488 75.168 127.563 75.4479 127.713 75.6172C127.863 75.7865 128.149 75.8711 128.572 75.8711C128.885 75.8711 129.161 75.8483 129.402 75.8027V77.9414C128.849 78.1107 128.279 78.1953 127.693 78.1953C125.714 78.1953 124.705 77.196 124.666 75.1973V69.5039H123.123V67.4336H124.666V64.8359H127.488Z" fill="#FFC108"/>
</svg>
