<svg width="12" height="13" viewBox="0 0 12 13" fill="none" xmlns="http://www.w3.org/2000/svg">
<g clip-path="url(#clip0_93_8)">
<path d="M11.9993 3.31922e-05L9.98435 1.69442C8.92465 0.753905 7.56376 0.18261 6.08563 0.18261C2.74491 0.18261 -0.000488281 3.08853 -0.000488281 6.62406C-0.000488281 10.1598 2.74513 12.9998 6.08563 12.9998C8.7045 12.9998 10.9551 11.2577 11.8061 8.80035L9.62552 8.238C9.04197 9.69444 7.68967 10.6992 6.08563 10.6992C3.93839 10.6992 2.23505 8.8965 2.23505 6.62378C2.23505 4.35119 3.93828 2.48272 6.08563 2.48272C6.88231 2.48272 7.61433 2.74379 8.22478 3.18384L6.23055 4.86361L11.9994 5.99564V-0.000366211L11.9993 3.31922e-05Z" fill="#FFC107"/>
</g>
<defs>
<clipPath id="clip0_93_8">
<rect width="12" height="13" fill="white"/>
</clipPath>
</defs>
</svg>
