<svg width="758" height="235" viewBox="0 0 758 235" fill="none" xmlns="http://www.w3.org/2000/svg">
<rect width="758" height="235" rx="30" fill="#7953B3"/>
<rect x="11" y="8" width="44" height="31" rx="12" fill="#353B41"/>
<rect x="11" y="46" width="44" height="31" rx="12" fill="#353B41"/>
<rect x="11" y="84" width="44" height="31" rx="12" fill="#353B41"/>
<rect x="11" y="122" width="44" height="31" rx="12" fill="#353B41"/>
<rect x="11" y="160" width="44" height="31" rx="12" fill="#353B41"/>
<rect x="11" y="195" width="44" height="31" rx="12" fill="#353B41"/>
<rect x="63" width="9" height="235" fill="#E1E8EB"/>
<path d="M110.091 147.854H231.051V135.466C231.051 102.012 203.92 74.7948 170.571 74.7948C137.222 74.7948 110.091 102.012 110.091 135.466V147.854Z" fill="#3F3D56"/>
<path opacity="0.2" d="M110.091 147.854H231.051V135.466C231.051 102.012 203.92 74.7948 170.571 74.7948C137.222 74.7948 110.091 102.012 110.091 135.466V147.854Z" fill="black"/>
<path d="M125.768 152.142H218.858C218.769 147.229 216.763 142.547 213.27 139.102C209.777 135.657 205.076 133.724 200.178 133.719H144.448C139.549 133.724 134.849 135.657 131.356 139.102C127.863 142.547 125.857 147.229 125.768 152.142V152.142Z" fill="#FFC107"/>
<path d="M114.682 150.236C125 150.236 133.365 141.846 133.365 131.495C133.365 121.145 125 112.754 114.682 112.754C104.364 112.754 96 121.145 96 131.495C96 141.846 104.364 150.236 114.682 150.236Z" fill="#3F3D56"/>
<path d="M228.043 150.236C238.361 150.236 246.726 141.846 246.726 131.495C246.726 121.145 238.361 112.754 228.043 112.754C217.725 112.754 209.361 121.145 209.361 131.495C209.361 141.846 217.725 150.236 228.043 150.236Z" fill="#3F3D56"/>
<path d="M213.952 141.025V148.013H127.665V141.025H108.35V175.085C108.35 177.172 109.176 179.174 110.647 180.649C112.118 182.125 114.113 182.954 116.194 182.954H225.424C226.454 182.954 227.474 182.751 228.426 182.355C229.377 181.96 230.242 181.38 230.97 180.649C231.699 179.919 232.277 179.051 232.671 178.097C233.065 177.142 233.268 176.119 233.268 175.085V141.025H213.952Z" fill="#3F3D56"/>
<path opacity="0.2" d="M114.683 135.307C116.781 135.307 118.482 133.6 118.482 131.495C118.482 129.39 116.781 127.683 114.683 127.683C112.584 127.683 110.883 129.39 110.883 131.495C110.883 133.6 112.584 135.307 114.683 135.307Z" fill="black"/>
<path opacity="0.2" d="M228.043 135.307C230.142 135.307 231.843 133.6 231.843 131.495C231.843 129.39 230.142 127.683 228.043 127.683C225.944 127.683 224.243 129.39 224.243 131.495C224.243 133.6 225.944 135.307 228.043 135.307Z" fill="black"/>
<path d="M177.453 72.654C177.453 72.654 177.827 79.7739 180.442 81.2728C183.056 82.7718 180.442 92.8896 180.442 92.8896L168.114 93.2643L167.367 81.2728C167.367 81.2728 168.861 76.4013 168.114 74.1529C167.367 71.9045 177.453 72.654 177.453 72.654Z" fill="#FFB8B8"/>
<path d="M191.275 171.583L186.792 176.83L193.89 183.575L197.625 176.08L191.275 171.583Z" fill="#FFB8B8"/>
<path d="M159.522 171.583L164.005 176.83L156.907 183.575L153.172 176.08L159.522 171.583Z" fill="#FFB8B8"/>
<path d="M188.847 121.931C188.847 121.931 215.743 130.925 214.249 139.544C212.754 148.163 201.174 178.516 201.174 178.516C201.174 178.516 194.824 178.516 189.967 171.771L193.329 164.276C193.329 164.276 191.835 160.154 194.45 159.405C197.065 158.655 198.559 145.54 198.559 145.54C198.559 145.54 179.508 144.041 175.399 136.921L167.928 118.933L188.847 121.931Z" fill="#2F2E41"/>
<path d="M161.951 121.931C161.951 121.931 135.055 130.925 136.549 139.544C138.043 148.163 149.623 178.516 149.623 178.516C149.623 178.516 155.974 178.516 160.83 171.771L157.468 164.276C157.468 164.276 158.962 160.154 156.347 159.405C153.732 158.655 152.238 145.54 152.238 145.54C152.238 145.54 171.289 144.041 175.398 136.921L182.87 118.933L161.951 121.931Z" fill="#2F2E41"/>
<path d="M192.582 180.764C192.582 180.764 196.318 177.392 196.691 180.015C197.065 182.638 196.318 193.131 196.318 193.131C196.318 193.131 200.053 201 194.45 201C188.847 201 186.232 195.004 186.979 189.009C187.726 183.013 184.364 180.764 184.364 180.764C184.364 180.764 180.255 172.52 184.364 171.771C188.473 171.021 189.967 172.895 189.967 172.895C189.967 172.895 188.473 179.64 192.582 180.764Z" fill="#2F2E41"/>
<path d="M158.215 180.764C158.215 180.764 154.48 177.392 154.106 180.015C153.732 182.638 154.48 193.131 154.48 193.131C154.48 193.131 150.744 201 156.347 201C161.951 201 164.566 195.004 163.818 189.009C163.071 183.013 166.433 180.764 166.433 180.764C166.433 180.764 170.542 172.52 166.433 171.771C162.324 171.021 160.83 172.895 160.83 172.895C160.83 172.895 162.324 179.64 158.215 180.764Z" fill="#2F2E41"/>
<path d="M171.663 76.9634C176.408 76.9634 180.255 73.1046 180.255 68.3446C180.255 63.5845 176.408 59.7257 171.663 59.7257C166.918 59.7257 163.071 63.5845 163.071 68.3446C163.071 73.1046 166.918 76.9634 171.663 76.9634Z" fill="#FFB8B8"/>
<path d="M172.97 83.1465L167.741 79.0244L155.04 85.0201L154.666 119.121C154.666 119.121 146.822 122.868 149.063 127.74C149.063 127.74 155.787 129.239 158.775 132.237C161.764 135.234 178.574 131.112 185.671 128.864C192.769 126.616 194.637 123.992 194.637 123.992L187.539 113.875L191.648 88.018L178.949 79.4529L172.97 83.1465Z" fill="#E6E6E6"/>
<path d="M182.108 62.4783C181.921 62.2235 181.75 61.9571 181.596 61.6808C181.33 61.03 181.751 60.2629 181.357 59.6551C180.956 59.0347 179.937 58.9039 179.244 58.4824C178.176 57.833 177.982 56.5589 176.981 55.8434C176.26 55.3278 175.232 55.1889 174.268 55.2183C173.305 55.2477 172.354 55.4224 171.39 55.4416C170.089 55.4707 168.799 55.2059 167.613 54.6667L168.324 56.062C167.534 55.8893 166.779 55.5823 166.092 55.1545C165.778 55.5458 166.353 56.1397 165.997 56.5067C165.85 56.6251 165.677 56.7056 165.493 56.7411C164.121 57.132 162.83 57.764 161.679 58.6077C161.412 58.7778 161.192 59.0112 161.037 59.2874C160.851 59.6994 161.016 60.1545 161.002 60.5926C160.976 61.3886 160.37 62.0827 159.941 62.7998C159.511 63.5169 159.279 64.4466 159.916 65.0553C160.071 65.1789 160.22 65.3104 160.362 65.4493C161 66.2052 159.87 67.3122 160.415 68.1144C160.651 68.4626 161.136 68.6389 161.558 68.8446C162.365 69.2234 163.045 69.8308 163.512 70.592L163.185 68.1794C163.168 68.1198 163.164 68.0569 163.176 67.9959C163.187 67.9349 163.213 67.8774 163.25 67.8279C163.409 67.6657 163.741 67.7304 163.96 67.6229C164.201 67.5047 164.219 67.2334 164.21 67.0063L164.136 65.2546C164.103 64.4669 164.094 64.3623 164.672 63.7266C165.076 63.2824 165.711 63.0144 166.35 62.8173C167.809 62.3669 169.378 62.2111 170.928 62.0588C172.729 61.882 174.757 61.0054 176.156 61.9362C177.301 62.6981 177.682 63.9504 178.233 65.0611C178.729 66.0594 180.002 68.9988 181.061 67.4077C181.727 66.4084 182.744 63.5909 182.108 62.4783Z" fill="#2F2E41"/>
<path d="M173.138 65.8444C173.103 65.8444 173.069 65.8585 173.044 65.8836C173.019 65.9087 173.004 65.9427 173.004 65.9782V69.5867C173.004 69.6222 173.019 69.6563 173.044 69.6814C173.069 69.7065 173.103 69.7206 173.138 69.7206H179.33C179.366 69.7206 179.4 69.7065 179.425 69.6814C179.45 69.6563 179.464 69.6222 179.464 69.5867V65.9782C179.464 65.9427 179.45 65.9087 179.425 65.8836C179.4 65.8585 179.366 65.8444 179.33 65.8444L173.138 65.8444Z" fill="#3F3D56"/>
<path d="M173.83 66.1626C173.764 66.1627 173.701 66.189 173.654 66.2358C173.608 66.2826 173.582 66.346 173.582 66.4121V69.1528C173.582 69.219 173.608 69.2824 173.654 69.3292C173.701 69.376 173.764 69.4023 173.83 69.4024H178.639C178.705 69.4023 178.768 69.376 178.814 69.3292C178.861 69.2824 178.887 69.219 178.887 69.1528V66.4121C178.887 66.346 178.861 66.2826 178.814 66.2358C178.768 66.189 178.705 66.1627 178.639 66.1626H173.83Z" fill="#FF6584"/>
<path d="M173.207 67.033H169.982V67.7824H173.207V67.033Z" fill="#3F3D56"/>
<path d="M164.369 65.8444C164.334 65.8444 164.3 65.8585 164.275 65.8836C164.25 65.9087 164.236 65.9427 164.236 65.9782V69.5867C164.236 69.6222 164.25 69.6562 164.275 69.6813C164.3 69.7064 164.334 69.7206 164.369 69.7206H170.562C170.597 69.7206 170.631 69.7064 170.656 69.6813C170.681 69.6562 170.695 69.6222 170.695 69.5867V65.9782C170.695 65.9427 170.681 65.9087 170.656 65.8836C170.631 65.8585 170.597 65.8444 170.562 65.8444L164.369 65.8444Z" fill="#3F3D56"/>
<path d="M165.061 66.1626C164.995 66.1627 164.932 66.189 164.886 66.2357C164.839 66.2825 164.813 66.346 164.812 66.4121V69.1528C164.813 69.219 164.839 69.2825 164.886 69.3292C164.932 69.376 164.995 69.4023 165.061 69.4024H169.87C169.936 69.4023 169.999 69.376 170.045 69.3292C170.092 69.2825 170.118 69.219 170.118 69.1528V66.4121C170.118 66.346 170.092 66.2825 170.045 66.2357C169.999 66.189 169.936 66.1627 169.87 66.1626H165.061Z" fill="#FFC107"/>
<path d="M160.984 110.886H182.433C183.289 110.886 184.11 111.228 184.716 111.835C185.321 112.443 185.662 113.266 185.662 114.125V114.125H157.755C157.755 113.266 158.096 112.443 158.701 111.835C159.307 111.228 160.128 110.886 160.984 110.886V110.886Z" fill="#3F3D56"/>
<path d="M183.932 110.655C183.806 110.656 183.682 110.677 183.563 110.718C183.522 110.554 183.423 110.41 183.284 110.314C183.145 110.218 182.976 110.177 182.808 110.198C182.641 110.218 182.487 110.3 182.375 110.427C182.263 110.554 182.202 110.717 182.202 110.887C182.202 110.89 182.203 110.893 182.203 110.897C182.116 110.905 182.031 110.923 181.948 110.95C181.925 110.856 181.883 110.769 181.824 110.693C181.765 110.616 181.691 110.553 181.606 110.507C181.828 110.384 182.003 110.192 182.106 109.959C182.235 109.972 182.366 109.958 182.49 109.916C182.613 109.875 182.727 109.808 182.823 109.72C182.919 109.632 182.996 109.524 183.048 109.404C183.1 109.285 183.126 109.155 183.124 109.024C183.123 108.894 183.094 108.765 183.04 108.646C182.986 108.527 182.907 108.421 182.809 108.335C182.711 108.249 182.596 108.184 182.472 108.145C182.347 108.107 182.216 108.095 182.087 108.11C181.961 108.111 181.837 108.132 181.718 108.173C181.697 108.082 181.657 107.997 181.602 107.921C181.547 107.846 181.477 107.783 181.397 107.735C181.316 107.688 181.227 107.657 181.135 107.645C181.042 107.633 180.949 107.64 180.859 107.666C180.769 107.691 180.686 107.735 180.613 107.793C180.541 107.852 180.481 107.925 180.437 108.007C180.394 108.09 180.367 108.181 180.359 108.274C180.352 108.367 180.363 108.461 180.392 108.549C180.364 108.568 180.339 108.59 180.313 108.612C180.182 108.499 180.013 108.442 179.841 108.454C179.753 108.199 179.577 107.983 179.346 107.844C179.114 107.705 178.841 107.653 178.575 107.695C178.309 107.738 178.066 107.873 177.889 108.078C177.712 108.282 177.613 108.542 177.608 108.813C177.516 108.82 177.424 108.839 177.336 108.867C177.326 108.828 177.313 108.79 177.296 108.753C177.387 108.673 177.46 108.574 177.511 108.463C177.561 108.352 177.588 108.232 177.589 108.11C177.573 107.85 177.455 107.606 177.261 107.433C177.066 107.26 176.811 107.17 176.552 107.185C176.426 107.185 176.301 107.207 176.183 107.248C176.161 107.157 176.122 107.071 176.067 106.996C176.012 106.921 175.942 106.857 175.861 106.81C175.781 106.763 175.692 106.732 175.6 106.72C175.507 106.708 175.413 106.715 175.324 106.74C175.234 106.766 175.151 106.809 175.078 106.868C175.006 106.927 174.946 106.999 174.902 107.082C174.859 107.165 174.832 107.255 174.824 107.348C174.816 107.441 174.828 107.535 174.857 107.624C174.712 107.725 174.592 107.858 174.506 108.014C174.421 108.169 174.372 108.342 174.364 108.519C174.354 108.528 174.343 108.535 174.334 108.544C174.351 108.478 174.36 108.41 174.361 108.342C174.344 108.081 174.226 107.838 174.032 107.664C173.837 107.491 173.582 107.402 173.323 107.416C173.197 107.417 173.073 107.438 172.954 107.479C172.933 107.388 172.893 107.303 172.838 107.227C172.783 107.152 172.713 107.089 172.633 107.041C172.552 106.994 172.463 106.963 172.371 106.951C172.279 106.939 172.185 106.946 172.095 106.972C172.005 106.997 171.922 107.04 171.849 107.099C171.777 107.158 171.717 107.231 171.673 107.313C171.63 107.396 171.603 107.486 171.595 107.58C171.588 107.673 171.599 107.766 171.628 107.855C171.475 107.961 171.35 108.103 171.263 108.268C171.177 108.434 171.132 108.618 171.132 108.804C171.132 108.991 171.177 109.175 171.263 109.34C171.35 109.506 171.475 109.647 171.628 109.754C171.581 109.888 171.581 110.034 171.628 110.169C171.512 110.25 171.413 110.351 171.333 110.468C171.29 110.312 171.195 110.177 171.063 110.085C170.931 109.993 170.771 109.95 170.611 109.964C170.451 109.978 170.301 110.047 170.186 110.161C170.072 110.274 170.001 110.424 169.986 110.584C169.893 110.53 169.793 110.49 169.689 110.464C169.876 110.341 170.023 110.165 170.113 109.959C170.242 109.972 170.373 109.958 170.497 109.916C170.621 109.875 170.734 109.808 170.83 109.72C170.927 109.632 171.003 109.524 171.055 109.404C171.107 109.285 171.133 109.155 171.132 109.024C171.13 108.894 171.102 108.765 171.047 108.646C170.993 108.527 170.914 108.421 170.816 108.335C170.718 108.249 170.603 108.184 170.479 108.145C170.355 108.107 170.223 108.095 170.094 108.11C169.968 108.111 169.844 108.132 169.725 108.173C169.704 108.082 169.664 107.997 169.609 107.921C169.554 107.846 169.484 107.783 169.404 107.735C169.324 107.688 169.234 107.657 169.142 107.645C169.05 107.633 168.956 107.64 168.866 107.666C168.777 107.691 168.693 107.735 168.62 107.793C168.548 107.852 168.488 107.925 168.445 108.007C168.401 108.09 168.374 108.181 168.367 108.274C168.359 108.367 168.37 108.461 168.399 108.549C168.384 108.56 168.371 108.572 168.357 108.583C168.321 108.579 168.286 108.573 168.249 108.573C168.123 108.574 167.999 108.595 167.88 108.636C167.876 108.619 167.869 108.602 167.863 108.585C167.885 108.482 167.883 108.376 167.858 108.273C167.832 108.171 167.783 108.076 167.715 107.996C167.646 107.916 167.56 107.854 167.463 107.813C167.366 107.771 167.262 107.754 167.157 107.76C167.097 107.592 166.999 107.441 166.871 107.317C166.742 107.194 166.588 107.102 166.418 107.048C166.249 106.995 166.069 106.981 165.893 107.009C165.718 107.037 165.551 107.105 165.406 107.208C165.261 107.311 165.142 107.446 165.058 107.603C164.974 107.76 164.927 107.935 164.921 108.113C164.915 108.291 164.951 108.468 165.024 108.63C165.098 108.792 165.208 108.935 165.346 109.048C165.267 109.057 165.188 109.074 165.113 109.099C165.085 108.986 165.03 108.882 164.952 108.796C164.874 108.711 164.775 108.646 164.666 108.609C164.556 108.572 164.439 108.563 164.325 108.584C164.211 108.604 164.104 108.653 164.014 108.727C163.912 108.604 163.783 108.506 163.638 108.44C163.493 108.373 163.335 108.34 163.175 108.342C163.049 108.342 162.925 108.363 162.806 108.405C162.785 108.314 162.745 108.228 162.69 108.153C162.635 108.077 162.565 108.014 162.485 107.967C162.405 107.919 162.316 107.889 162.223 107.877C162.131 107.865 162.037 107.872 161.947 107.897C161.858 107.923 161.774 107.966 161.702 108.025C161.629 108.083 161.569 108.156 161.526 108.239C161.482 108.321 161.455 108.412 161.448 108.505C161.44 108.598 161.451 108.692 161.48 108.781C161.327 108.887 161.202 109.029 161.116 109.194C161.029 109.359 160.984 109.543 160.984 109.73C160.984 109.733 160.985 109.737 160.985 109.74C160.822 109.715 160.654 109.733 160.5 109.793C160.479 109.702 160.439 109.616 160.384 109.541C160.329 109.466 160.259 109.402 160.179 109.355C160.098 109.307 160.009 109.277 159.917 109.265C159.825 109.253 159.731 109.26 159.641 109.285C159.551 109.311 159.468 109.354 159.395 109.413C159.323 109.471 159.263 109.544 159.219 109.627C159.176 109.709 159.149 109.8 159.141 109.893C159.134 109.986 159.145 110.08 159.174 110.169C158.952 110.32 158.789 110.544 158.715 110.803C158.64 111.062 158.658 111.339 158.766 111.586C158.874 111.832 159.065 112.033 159.305 112.154C159.546 112.274 159.82 112.306 160.082 112.244C160.123 112.485 160.241 112.707 160.416 112.877C160.592 113.047 160.817 113.157 161.059 113.19C161.301 113.223 161.547 113.177 161.762 113.061C161.977 112.944 162.149 112.761 162.253 112.54C163.083 112.648 163.927 112.61 164.744 112.427C164.82 112.646 164.961 112.837 165.147 112.975C165.333 113.113 165.557 113.191 165.788 113.199C166.019 113.208 166.247 113.146 166.443 113.022C166.639 112.898 166.792 112.717 166.884 112.504C167.052 112.501 167.217 112.46 167.368 112.384C167.473 112.571 167.628 112.724 167.815 112.827C168.003 112.93 168.215 112.979 168.429 112.967C168.642 112.956 168.848 112.884 169.023 112.762C169.199 112.639 169.336 112.47 169.421 112.273C169.677 112.224 169.943 112.267 170.171 112.394C170.399 112.521 170.576 112.725 170.67 112.969C170.825 112.757 171.023 112.581 171.252 112.454C171.481 112.327 171.734 112.252 171.995 112.233C172.227 112.298 172.473 112.287 172.698 112.201C172.923 112.114 173.114 111.958 173.244 111.755C173.171 112.037 173.208 112.335 173.345 112.592C173.482 112.848 173.711 113.043 173.985 113.137C174.26 113.232 174.559 113.219 174.825 113.102C175.09 112.985 175.302 112.771 175.417 112.504C175.585 112.501 175.751 112.46 175.901 112.384C176.006 112.571 176.161 112.724 176.349 112.827C176.536 112.93 176.749 112.979 176.962 112.967C177.175 112.956 177.381 112.884 177.557 112.762C177.732 112.639 177.87 112.47 177.954 112.273C178.122 112.27 178.288 112.229 178.438 112.153C178.519 112.298 178.631 112.423 178.765 112.521C178.899 112.618 179.053 112.685 179.216 112.717C179.379 112.748 179.546 112.744 179.707 112.704C179.868 112.664 180.018 112.589 180.147 112.485C180.188 112.707 180.291 112.911 180.446 113.074C180.601 113.237 180.799 113.351 181.018 113.402C181.236 113.453 181.465 113.438 181.675 113.36C181.885 113.282 182.068 113.144 182.201 112.963C182.34 113.07 182.501 113.143 182.672 113.177C182.843 113.212 183.019 113.207 183.188 113.163C183.357 113.119 183.513 113.036 183.645 112.922C183.777 112.808 183.882 112.665 183.951 112.504C184.08 112.517 184.211 112.503 184.335 112.461C184.458 112.42 184.572 112.353 184.668 112.265C184.764 112.177 184.841 112.069 184.893 111.949C184.945 111.829 184.971 111.7 184.969 111.569C184.968 111.439 184.939 111.31 184.885 111.191C184.831 111.072 184.752 110.966 184.654 110.88C184.556 110.794 184.441 110.729 184.317 110.69C184.192 110.652 184.061 110.64 183.932 110.655L183.932 110.655ZM163.318 110.178C163.317 110.183 163.316 110.189 163.315 110.195C163.307 110.194 163.299 110.192 163.29 110.192C163.256 110.193 163.222 110.197 163.188 110.203C163.189 110.199 163.192 110.195 163.194 110.191C163.236 110.189 163.277 110.184 163.318 110.178V110.178ZM172.954 109.793C172.951 109.779 172.945 109.767 172.941 109.754C173.117 109.631 173.256 109.462 173.342 109.265C173.493 109.265 173.643 109.232 173.781 109.169C173.919 109.106 174.043 109.015 174.143 108.901C174.135 108.945 174.13 108.991 174.13 109.036C174.131 109.106 174.143 109.176 174.165 109.243C173.967 109.382 173.817 109.579 173.736 109.807C173.485 109.709 173.208 109.704 172.954 109.793V109.793ZM179.861 109.879C179.861 109.865 179.863 109.85 179.862 109.836C179.891 109.836 179.921 109.834 179.95 109.83C179.994 109.98 180.069 110.119 180.169 110.238C180.148 110.245 180.125 110.248 180.103 110.255C180.066 110.107 179.981 109.974 179.861 109.879V109.879Z" fill="#F9A825"/>
<path d="M160.079 112.043C159.751 112.043 159.428 112.11 159.127 112.24C158.827 112.369 158.556 112.559 158.331 112.797C158.106 113.035 157.931 113.317 157.818 113.625C157.705 113.933 157.656 114.261 157.674 114.589L159.236 136.132C159.269 136.749 159.536 137.33 159.984 137.756C160.431 138.181 161.024 138.418 161.64 138.418H181.777C182.393 138.418 182.986 138.181 183.433 137.756C183.881 137.33 184.148 136.749 184.181 136.132L185.743 114.589C185.761 114.261 185.712 113.933 185.599 113.625C185.486 113.317 185.311 113.035 185.086 112.797C184.861 112.559 184.59 112.369 184.29 112.24C183.989 112.11 183.666 112.043 183.338 112.043H160.079Z" fill="#3F3D56"/>
<path d="M162.599 112.043H161.215V138.418H162.599V112.043Z" fill="#FFC107"/>
<path d="M166.52 112.043H165.136V138.418H166.52V112.043Z" fill="#FFC107"/>
<path d="M170.44 112.043H169.056V138.418H170.44V112.043Z" fill="#FFC107"/>
<path d="M174.361 112.043H172.977V138.418H174.361V112.043Z" fill="#FFC107"/>
<path d="M178.282 112.043H176.898V138.418H178.282V112.043Z" fill="#FFC107"/>
<path d="M182.202 112.043H180.818V138.418H182.202V112.043Z" fill="#FFC107"/>
<path d="M180.815 125.117L176.333 127.74C176.333 127.74 165.5 136.733 172.971 138.232C180.442 139.731 182.31 131.862 182.31 131.862L184.924 128.864L180.815 125.117Z" fill="#FFB8B8"/>
<path d="M159.523 123.243L164.005 125.866C164.005 125.866 174.838 134.86 167.367 136.359C159.896 137.858 158.028 129.988 158.028 129.988L155.414 126.99L159.523 123.243Z" fill="#FFB8B8"/>
<path d="M186.792 87.6433L191.648 88.018C191.648 88.018 195.384 91.3906 195.01 95.8874C195.01 95.8874 198.372 105.631 197.625 109.753C197.625 109.753 198.372 116.498 197.252 119.121C196.131 121.744 186.792 131.862 186.792 131.862C186.792 131.862 178.2 125.117 178.574 124.742L189.78 113.5L184.177 106.005L186.792 87.6433Z" fill="#E6E6E6"/>
<path d="M155.04 85.0201L154.853 85.2075C154.853 85.2075 146.448 88.7675 146.822 93.2643C146.822 93.2643 143.46 103.007 144.207 107.129C144.207 107.129 143.46 113.875 144.58 116.498C145.701 119.121 155.04 129.239 155.04 129.239C155.04 129.239 163.632 122.493 163.258 122.119L152.051 110.877L157.655 103.382L155.04 85.0201Z" fill="#E6E6E6"/>
<path d="M636.975 25.1V29.9C636.792 29.95 636.5 30 636.1 30.05C635.717 30.1 635.333 30.125 634.95 30.125C634.567 30.125 634.225 30.0917 633.925 30.025C633.642 29.975 633.4 29.875 633.2 29.725C633.017 29.575 632.875 29.3667 632.775 29.1C632.675 28.8333 632.625 28.4833 632.625 28.05V16.275C632.625 15.925 632.717 15.6583 632.9 15.475C633.1 15.275 633.367 15.1167 633.7 15C634.267 14.8 634.925 14.6583 635.675 14.575C636.425 14.475 637.225 14.425 638.075 14.425C640.375 14.425 642.108 14.9083 643.275 15.875C644.442 16.8417 645.025 18.15 645.025 19.8C645.025 20.8333 644.758 21.7167 644.225 22.45C643.692 23.1833 643.058 23.75 642.325 24.15C642.925 24.9667 643.517 25.7333 644.1 26.45C644.683 27.1667 645.142 27.8167 645.475 28.4C645.308 28.9833 645 29.4333 644.55 29.75C644.117 30.05 643.625 30.2 643.075 30.2C642.708 30.2 642.392 30.1583 642.125 30.075C641.858 29.9917 641.625 29.875 641.425 29.725C641.225 29.575 641.042 29.3917 640.875 29.175C640.708 28.9583 640.55 28.725 640.4 28.475L638.3 25.1H636.975ZM638.55 21.775C639.183 21.775 639.683 21.6167 640.05 21.3C640.417 20.9667 640.6 20.4833 640.6 19.85C640.6 19.2167 640.392 18.7417 639.975 18.425C639.575 18.0917 638.933 17.925 638.05 17.925C637.8 17.925 637.6 17.9333 637.45 17.95C637.3 17.9667 637.133 17.9917 636.95 18.025V21.775H638.55ZM647.859 17.175C647.859 16.4583 648.068 15.8917 648.484 15.475C648.901 15.0583 649.468 14.85 650.184 14.85H658.434C658.551 15.0333 658.651 15.275 658.734 15.575C658.834 15.875 658.884 16.1917 658.884 16.525C658.884 17.1583 658.743 17.6083 658.459 17.875C658.193 18.1417 657.834 18.275 657.384 18.275H652.109V20.6H657.734C657.851 20.7833 657.951 21.025 658.034 21.325C658.134 21.6083 658.184 21.9167 658.184 22.25C658.184 22.8833 658.051 23.3333 657.784 23.6C657.518 23.8667 657.159 24 656.709 24H652.109V26.625H658.534C658.651 26.8083 658.751 27.05 658.834 27.35C658.934 27.65 658.984 27.9667 658.984 28.3C658.984 28.9333 658.843 29.3917 658.559 29.675C658.293 29.9417 657.934 30.075 657.484 30.075H650.184C649.468 30.075 648.901 29.8667 648.484 29.45C648.068 29.0333 647.859 28.4667 647.859 27.75V17.175ZM672.128 26.275C671.912 26.4583 671.628 26.6083 671.278 26.725C670.945 26.825 670.553 26.875 670.103 26.875C669.503 26.875 669.003 26.8 668.603 26.65C668.22 26.5 667.97 26.2417 667.853 25.875C667.387 24.4083 667.003 23.225 666.703 22.325C666.403 21.4083 666.17 20.6083 666.003 19.925H665.878C665.828 20.9083 665.787 21.8083 665.753 22.625C665.737 23.425 665.72 24.2083 665.703 24.975C665.703 25.7417 665.687 26.5167 665.653 27.3C665.637 28.0833 665.603 28.95 665.553 29.9C665.337 29.9833 665.053 30.05 664.703 30.1C664.353 30.1667 664.003 30.2 663.653 30.2C662.92 30.2 662.345 30.0833 661.928 29.85C661.528 29.6167 661.328 29.1917 661.328 28.575L662.053 15.825C662.187 15.6083 662.478 15.375 662.928 15.125C663.378 14.875 664.012 14.75 664.828 14.75C665.712 14.75 666.403 14.8917 666.903 15.175C667.403 15.4417 667.77 15.8833 668.003 16.5C668.153 16.9 668.312 17.3583 668.478 17.875C668.662 18.3917 668.837 18.925 669.003 19.475C669.187 20.025 669.362 20.575 669.528 21.125C669.695 21.6583 669.845 22.1417 669.978 22.575H670.103C670.503 21.175 670.903 19.825 671.303 18.525C671.703 17.2083 672.07 16.1083 672.403 15.225C672.653 15.0917 672.97 14.9833 673.353 14.9C673.753 14.8 674.195 14.75 674.678 14.75C675.495 14.75 676.162 14.875 676.678 15.125C677.195 15.3583 677.495 15.7 677.578 16.15C677.645 16.4833 677.712 17 677.778 17.7C677.862 18.3833 677.945 19.1583 678.028 20.025C678.112 20.8917 678.195 21.8083 678.278 22.775C678.362 23.7417 678.437 24.675 678.503 25.575C678.587 26.4583 678.653 27.275 678.703 28.025C678.753 28.7583 678.787 29.325 678.803 29.725C678.52 29.8917 678.22 30.0083 677.903 30.075C677.603 30.1583 677.212 30.2 676.728 30.2C676.095 30.2 675.562 30.0917 675.128 29.875C674.695 29.6583 674.462 29.2333 674.428 28.6C674.328 26.7833 674.262 25.15 674.228 23.7C674.212 22.25 674.178 21.0333 674.128 20.05H674.003C673.837 20.7 673.595 21.5167 673.278 22.5C672.962 23.4833 672.578 24.7417 672.128 26.275ZM685.95 29.9C685.767 29.95 685.475 30 685.075 30.05C684.692 30.1 684.309 30.125 683.925 30.125C683.542 30.125 683.2 30.0917 682.9 30.025C682.617 29.975 682.375 29.875 682.175 29.725C681.975 29.575 681.825 29.3667 681.725 29.1C681.625 28.8333 681.575 28.4833 681.575 28.05V14.85C681.759 14.8167 682.05 14.775 682.45 14.725C682.85 14.6583 683.234 14.625 683.6 14.625C683.984 14.625 684.317 14.6583 684.6 14.725C684.9 14.775 685.15 14.875 685.35 15.025C685.55 15.175 685.7 15.3833 685.8 15.65C685.9 15.9167 685.95 16.2667 685.95 16.7V29.9ZM702.917 27.525C702.917 28.0417 702.826 28.425 702.642 28.675C702.459 28.925 702.167 29.1667 701.767 29.4C701.534 29.5333 701.242 29.6667 700.892 29.8C700.542 29.9167 700.159 30.0167 699.742 30.1C699.326 30.2 698.884 30.275 698.417 30.325C697.967 30.375 697.517 30.4 697.067 30.4C695.867 30.4 694.742 30.2417 693.692 29.925C692.642 29.5917 691.726 29.1 690.942 28.45C690.176 27.7833 689.567 26.9583 689.117 25.975C688.667 24.9917 688.442 23.85 688.442 22.55C688.442 21.1833 688.684 19.9917 689.167 18.975C689.667 17.9583 690.317 17.1167 691.117 16.45C691.934 15.7667 692.859 15.2583 693.892 14.925C694.942 14.5917 696.017 14.425 697.117 14.425C698.701 14.425 699.951 14.6833 700.867 15.2C701.801 15.7 702.267 16.3583 702.267 17.175C702.267 17.6083 702.159 17.9833 701.942 18.3C701.726 18.6167 701.476 18.8667 701.192 19.05C700.776 18.8 700.251 18.5583 699.617 18.325C699.001 18.075 698.301 17.95 697.517 17.95C696.117 17.95 695.001 18.35 694.167 19.15C693.351 19.95 692.942 21.0583 692.942 22.475C692.942 23.2417 693.051 23.9083 693.267 24.475C693.501 25.025 693.809 25.4833 694.192 25.85C694.576 26.2 695.017 26.4667 695.517 26.65C696.017 26.8167 696.551 26.9 697.117 26.9C697.484 26.9 697.809 26.8667 698.092 26.8C698.376 26.7333 698.592 26.6583 698.742 26.575V24.225H696.067C695.967 24.0417 695.867 23.8 695.767 23.5C695.684 23.2 695.642 22.8833 695.642 22.55C695.642 21.95 695.776 21.5167 696.042 21.25C696.326 20.9833 696.684 20.85 697.117 20.85H701.342C701.842 20.85 702.226 20.9917 702.492 21.275C702.776 21.5417 702.917 21.925 702.917 22.425V27.525Z" fill="#353B41"/>
<path d="M654.89 39.495C654.64 39.495 654.4 39.535 654.17 39.615C653.95 39.695 653.755 39.815 653.585 39.975C653.425 40.125 653.295 40.315 653.195 40.545C653.095 40.775 653.045 41.045 653.045 41.355C653.045 41.975 653.22 42.44 653.57 42.75C653.93 43.06 654.365 43.215 654.875 43.215C655.175 43.215 655.435 43.18 655.655 43.11C655.875 43.04 656.07 42.965 656.24 42.885C656.44 43.025 656.59 43.18 656.69 43.35C656.79 43.51 656.84 43.705 656.84 43.935C656.84 44.345 656.645 44.665 656.255 44.895C655.865 45.115 655.325 45.225 654.635 45.225C654.005 45.225 653.435 45.135 652.925 44.955C652.415 44.765 651.975 44.505 651.605 44.175C651.245 43.835 650.965 43.43 650.765 42.96C650.565 42.49 650.465 41.97 650.465 41.4C650.465 40.74 650.57 40.165 650.78 39.675C651 39.175 651.295 38.765 651.665 38.445C652.035 38.125 652.46 37.885 652.94 37.725C653.43 37.565 653.945 37.485 654.485 37.485C655.205 37.485 655.76 37.615 656.15 37.875C656.54 38.135 656.735 38.47 656.735 38.88C656.735 39.07 656.69 39.25 656.6 39.42C656.51 39.58 656.405 39.72 656.285 39.84C656.115 39.76 655.91 39.685 655.67 39.615C655.43 39.535 655.17 39.495 654.89 39.495ZM658.059 35.685C658.059 35.305 658.184 34.985 658.434 34.725C658.694 34.465 659.034 34.335 659.454 34.335C659.874 34.335 660.209 34.465 660.459 34.725C660.719 34.985 660.849 35.305 660.849 35.685C660.849 36.065 660.719 36.385 660.459 36.645C660.209 36.905 659.874 37.035 659.454 37.035C659.034 37.035 658.694 36.905 658.434 36.645C658.184 36.385 658.059 36.065 658.059 35.685ZM660.729 44.985C660.619 45.005 660.454 45.03 660.234 45.06C660.024 45.1 659.809 45.12 659.589 45.12C659.369 45.12 659.169 45.105 658.989 45.075C658.819 45.045 658.674 44.985 658.554 44.895C658.434 44.805 658.339 44.685 658.269 44.535C658.209 44.375 658.179 44.17 658.179 43.92V37.815C658.289 37.795 658.449 37.77 658.659 37.74C658.879 37.7 659.099 37.68 659.319 37.68C659.539 37.68 659.734 37.695 659.904 37.725C660.084 37.755 660.234 37.815 660.354 37.905C660.474 37.995 660.564 38.12 660.624 38.28C660.694 38.43 660.729 38.63 660.729 38.88V44.985ZM666.972 40.38C666.972 40.07 666.882 39.845 666.702 39.705C666.532 39.555 666.297 39.48 665.997 39.48C665.797 39.48 665.597 39.505 665.397 39.555C665.207 39.605 665.042 39.68 664.902 39.78V44.985C664.802 45.015 664.642 45.045 664.422 45.075C664.212 45.105 663.992 45.12 663.762 45.12C663.542 45.12 663.342 45.105 663.162 45.075C662.992 45.045 662.847 44.985 662.727 44.895C662.607 44.805 662.512 44.685 662.442 44.535C662.382 44.375 662.352 44.17 662.352 43.92V39.42C662.352 39.15 662.407 38.93 662.517 38.76C662.637 38.59 662.797 38.435 662.997 38.295C663.337 38.055 663.762 37.86 664.272 37.71C664.792 37.56 665.367 37.485 665.997 37.485C667.127 37.485 667.997 37.735 668.607 38.235C669.217 38.725 669.522 39.41 669.522 40.29V44.985C669.422 45.015 669.262 45.045 669.042 45.075C668.832 45.105 668.612 45.12 668.382 45.12C668.162 45.12 667.962 45.105 667.782 45.075C667.612 45.045 667.467 44.985 667.347 44.895C667.227 44.805 667.132 44.685 667.062 44.535C667.002 44.375 666.972 44.17 666.972 43.92V40.38ZM674.952 45.24C674.362 45.24 673.812 45.16 673.302 45C672.802 44.83 672.362 44.58 671.982 44.25C671.612 43.92 671.317 43.505 671.097 43.005C670.887 42.505 670.782 41.92 670.782 41.25C670.782 40.59 670.887 40.025 671.097 39.555C671.317 39.075 671.602 38.685 671.952 38.385C672.302 38.075 672.702 37.85 673.152 37.71C673.602 37.56 674.062 37.485 674.532 37.485C675.062 37.485 675.542 37.565 675.972 37.725C676.412 37.885 676.787 38.105 677.097 38.385C677.417 38.665 677.662 39 677.832 39.39C678.012 39.78 678.102 40.205 678.102 40.665C678.102 41.005 678.007 41.265 677.817 41.445C677.627 41.625 677.362 41.74 677.022 41.79L673.317 42.345C673.427 42.675 673.652 42.925 673.992 43.095C674.332 43.255 674.722 43.335 675.162 43.335C675.572 43.335 675.957 43.285 676.317 43.185C676.687 43.075 676.987 42.95 677.217 42.81C677.377 42.91 677.512 43.05 677.622 43.23C677.732 43.41 677.787 43.6 677.787 43.8C677.787 44.25 677.577 44.585 677.157 44.805C676.837 44.975 676.477 45.09 676.077 45.15C675.677 45.21 675.302 45.24 674.952 45.24ZM674.532 39.345C674.292 39.345 674.082 39.385 673.902 39.465C673.732 39.545 673.592 39.65 673.482 39.78C673.372 39.9 673.287 40.04 673.227 40.2C673.177 40.35 673.147 40.505 673.137 40.665L675.702 40.245C675.672 40.045 675.562 39.845 675.372 39.645C675.182 39.445 674.902 39.345 674.532 39.345ZM682.825 37.485C683.235 37.485 683.635 37.545 684.025 37.665C684.425 37.775 684.77 37.945 685.06 38.175C685.36 37.975 685.695 37.81 686.065 37.68C686.445 37.55 686.9 37.485 687.43 37.485C687.81 37.485 688.18 37.535 688.54 37.635C688.91 37.735 689.235 37.895 689.515 38.115C689.805 38.325 690.035 38.61 690.205 38.97C690.375 39.32 690.46 39.75 690.46 40.26V44.985C690.36 45.015 690.2 45.045 689.98 45.075C689.77 45.105 689.55 45.12 689.32 45.12C689.1 45.12 688.9 45.105 688.72 45.075C688.55 45.045 688.405 44.985 688.285 44.895C688.165 44.805 688.07 44.685 688 44.535C687.94 44.375 687.91 44.17 687.91 43.92V40.335C687.91 40.035 687.825 39.82 687.655 39.69C687.485 39.55 687.255 39.48 686.965 39.48C686.825 39.48 686.675 39.515 686.515 39.585C686.355 39.645 686.235 39.71 686.155 39.78C686.165 39.82 686.17 39.86 686.17 39.9C686.17 39.93 686.17 39.96 686.17 39.99V44.985C686.06 45.015 685.895 45.045 685.675 45.075C685.465 45.105 685.25 45.12 685.03 45.12C684.81 45.12 684.61 45.105 684.43 45.075C684.26 45.045 684.115 44.985 683.995 44.895C683.875 44.805 683.78 44.685 683.71 44.535C683.65 44.375 683.62 44.17 683.62 43.92V40.335C683.62 40.035 683.525 39.82 683.335 39.69C683.155 39.55 682.935 39.48 682.675 39.48C682.495 39.48 682.34 39.51 682.21 39.57C682.08 39.62 681.97 39.67 681.88 39.72V44.985C681.78 45.015 681.62 45.045 681.4 45.075C681.19 45.105 680.97 45.12 680.74 45.12C680.52 45.12 680.32 45.105 680.14 45.075C679.97 45.045 679.825 44.985 679.705 44.895C679.585 44.805 679.49 44.685 679.42 44.535C679.36 44.375 679.33 44.17 679.33 43.92V39.39C679.33 39.12 679.385 38.905 679.495 38.745C679.615 38.585 679.775 38.435 679.975 38.295C680.315 38.055 680.735 37.86 681.235 37.71C681.745 37.56 682.275 37.485 682.825 37.485ZM695.135 43.38C695.305 43.38 695.49 43.365 695.69 43.335C695.9 43.295 696.055 43.245 696.155 43.185V41.985L695.075 42.075C694.795 42.095 694.565 42.155 694.385 42.255C694.205 42.355 694.115 42.505 694.115 42.705C694.115 42.905 694.19 43.07 694.34 43.2C694.5 43.32 694.765 43.38 695.135 43.38ZM695.015 37.485C695.555 37.485 696.045 37.54 696.485 37.65C696.935 37.76 697.315 37.93 697.625 38.16C697.945 38.38 698.19 38.665 698.36 39.015C698.53 39.355 698.615 39.76 698.615 40.23V43.59C698.615 43.85 698.54 44.065 698.39 44.235C698.25 44.395 698.08 44.535 697.88 44.655C697.23 45.045 696.315 45.24 695.135 45.24C694.605 45.24 694.125 45.19 693.695 45.09C693.275 44.99 692.91 44.84 692.6 44.64C692.3 44.44 692.065 44.185 691.895 43.875C691.735 43.565 691.655 43.205 691.655 42.795C691.655 42.105 691.86 41.575 692.27 41.205C692.68 40.835 693.315 40.605 694.175 40.515L696.14 40.305V40.2C696.14 39.91 696.01 39.705 695.75 39.585C695.5 39.455 695.135 39.39 694.655 39.39C694.275 39.39 693.905 39.43 693.545 39.51C693.185 39.59 692.86 39.69 692.57 39.81C692.44 39.72 692.33 39.585 692.24 39.405C692.15 39.215 692.105 39.02 692.105 38.82C692.105 38.56 692.165 38.355 692.285 38.205C692.415 38.045 692.61 37.91 692.87 37.8C693.16 37.69 693.5 37.61 693.89 37.56C694.29 37.51 694.665 37.485 695.015 37.485Z" fill="#353B41"/>
<path d="M725.594 14.8994C722.137 14.2428 718.793 16.2004 717.619 19.3785L716.733 19.3779C716.049 17.4981 714.414 16.0136 712.297 15.6116C709.107 15.0058 706.034 17.0855 705.432 20.2582C704.919 22.9559 706.359 25.5724 708.763 26.6682L708.641 27.3099L707.471 27.0878L707.476 27.0346L706.188 26.2604L705.218 26.0762L706.147 29.5386L706.742 29.4949L707.154 29.0435L708.271 29.2556L706.909 36.4283L726.981 40.24L729.246 28.3151L727.704 28.0223C729.493 27.0442 730.845 25.3091 731.253 23.1568C731.981 19.3266 729.445 15.6307 725.595 14.8995L725.594 14.8994ZM717.567 24.114C717.848 24.9246 718.272 25.6788 718.819 26.3353L715.206 25.649C715.681 25.2117 716.083 24.6941 716.394 24.1127L717.567 24.114ZM725.425 37.4477C725.773 37.5138 726.002 37.8475 725.936 38.1932C725.87 38.539 725.535 38.7657 725.188 38.6997C724.84 38.6337 724.611 38.2999 724.677 37.9542C724.743 37.6085 725.078 37.3817 725.425 37.4477Z" fill="#353B41"/>
<path d="M734.733 30.5325L731.371 31.7779L729.01 31.3296L728.15 35.8606L730.51 36.3088L733.183 38.7005L734.734 30.5325L734.733 30.5325Z" fill="#353B41"/>
</svg>
