<svg width="229" height="47" viewBox="0 0 229 47" fill="none" xmlns="http://www.w3.org/2000/svg">
<path d="M4.23213 26.7678C3.25583 25.7915 3.25583 24.2085 4.23213 23.2322L20.142 7.32233C21.1183 6.34602 22.7013 6.34602 23.6776 7.32233C24.6539 8.29864 24.6539 9.88155 23.6776 10.8579L9.53543 25L23.6776 39.1421C24.6539 40.1184 24.6539 41.7014 23.6776 42.6777C22.7013 43.654 21.1183 43.654 20.142 42.6777L4.23213 26.7678ZM54.3071 27.5H5.9999V22.5H54.3071V27.5Z" fill="#E1E8EB"/>
<path d="M72.4609 36V33.4365L74.7314 32.9971V17.6895L72.4609 17.25V14.6719H81.9385C84.4482 14.6719 86.4062 15.1602 87.8125 16.1367C89.2188 17.1133 89.9219 18.5732 89.9219 20.5166C89.9219 21.5029 89.6582 22.3867 89.1309 23.168C88.6133 23.9395 87.8564 24.5205 86.8604 24.9111C88.1396 25.1846 89.0967 25.7705 89.7314 26.6689C90.376 27.5674 90.6982 28.6074 90.6982 29.7891C90.6982 31.8301 90.0244 33.3779 88.6768 34.4326C87.3291 35.4775 85.4199 36 82.9492 36H72.4609ZM79.0088 23.6074H82.085C83.2275 23.6074 84.1064 23.373 84.7217 22.9043C85.3369 22.4355 85.6445 21.752 85.6445 20.8535C85.6445 18.9297 84.4092 17.9678 81.9385 17.9678H79.0088V23.6074ZM79.0088 32.7188H82.9492C85.2734 32.7188 86.4355 31.7422 86.4355 29.7891C86.4355 28.7441 86.1816 27.9482 85.6738 27.4014C85.166 26.8447 84.3652 26.5664 83.2715 26.5664H79.0088V32.7188ZM97.5537 36.3076C95.9814 36.3076 94.7314 35.8877 93.8037 35.0479C92.876 34.1982 92.4121 33.0459 92.4121 31.5908C92.4121 30.1064 93.0127 28.8955 94.2139 27.958C95.4248 27.0205 97.2021 26.5518 99.5459 26.5518H101.641V25.3799C101.641 24.6182 101.416 24.0029 100.967 23.5342C100.527 23.0557 99.8633 22.8164 98.9746 22.8164C98.5156 22.8164 98.1006 22.875 97.7295 22.9922C97.3682 23.0996 97.041 23.2559 96.748 23.4609L96.4111 25.5557H93.335L93.2764 21.4395C94.1064 20.9707 95.0049 20.5898 95.9717 20.2969C96.9385 20.0039 98.0176 19.8574 99.209 19.8574C101.279 19.8574 102.915 20.3408 104.116 21.3076C105.317 22.2744 105.918 23.6465 105.918 25.4238V31.957C105.918 32.1719 105.918 32.3818 105.918 32.5869C105.928 32.792 105.947 32.9971 105.977 33.2021L107.632 33.4365V36H102.329C102.222 35.7266 102.114 35.4336 102.007 35.1211C101.899 34.8086 101.821 34.4961 101.772 34.1836C101.265 34.8281 100.664 35.3457 99.9707 35.7363C99.2871 36.1172 98.4814 36.3076 97.5537 36.3076ZM98.6963 33.1436C99.292 33.1436 99.8535 33.0117 100.381 32.748C100.918 32.4746 101.338 32.1182 101.641 31.6787V29.1738H99.5312C98.5938 29.1738 97.8809 29.3887 97.3926 29.8184C96.9141 30.248 96.6748 30.7656 96.6748 31.3711C96.6748 31.9375 96.8506 32.377 97.2021 32.6895C97.5635 32.9922 98.0615 33.1436 98.6963 33.1436ZM116.611 36.3076C115.088 36.3076 113.77 35.9658 112.656 35.2822C111.553 34.5986 110.703 33.6562 110.107 32.4551C109.512 31.2539 109.214 29.8721 109.214 28.3096V27.8701C109.214 26.3174 109.517 24.9404 110.122 23.7393C110.728 22.5283 111.582 21.5811 112.686 20.8975C113.789 20.2041 115.088 19.8574 116.582 19.8574C117.998 19.8574 119.224 20.082 120.259 20.5312C121.294 20.9707 122.134 21.4834 122.778 22.0693L122.749 26.6104H119.526L118.955 23.7832C118.721 23.5488 118.423 23.3584 118.062 23.2119C117.7 23.0654 117.334 22.9922 116.963 22.9922C115.791 22.9922 114.917 23.4268 114.341 24.2959C113.774 25.1553 113.491 26.3467 113.491 27.8701V28.3096C113.491 29.9404 113.799 31.1367 114.414 31.8984C115.029 32.6504 115.771 33.0264 116.641 33.0264C117.393 33.0264 117.993 32.8311 118.442 32.4404C118.901 32.04 119.219 31.4785 119.395 30.7559H123.042L123.086 30.8438C122.832 32.5332 122.207 33.8662 121.211 34.8428C120.215 35.8193 118.682 36.3076 116.611 36.3076ZM124.771 36V33.4365L126.836 32.9971V16.166L124.551 15.7266V13.1484H131.099V26.9912L135.479 22.9775L135.508 22.9336L133.882 22.6992V20.1504H142.129V22.7285L140.078 23.2412L136.094 26.8008L140.825 32.9824L142.788 33.4365V36H134.863V33.5684L136.064 33.29L136.035 33.2314L133.208 29.3789L131.099 31.2686V32.9971L132.944 33.4365V36H124.771Z" fill="#E1E8EB"/>
</svg>
