<svg width="229" height="47" viewBox="0 0 229 47" fill="none" xmlns="http://www.w3.org/2000/svg">
<path d="M219.075 25.7678C220.051 24.7915 220.051 23.2085 219.075 22.2322L203.165 6.32233C202.189 5.34602 200.606 5.34602 199.63 6.32233C198.653 7.29864 198.653 8.88155 199.63 9.85786L213.772 24L199.63 38.1421C198.653 39.1184 198.653 40.7014 199.63 41.6777C200.606 42.654 202.189 42.654 203.165 41.6777L219.075 25.7678ZM169 26.5H217.307V21.5H169V26.5Z" fill="#E1E8EB"/>
<path d="M40.0918 35.3076C38.0117 35.3076 36.2051 34.8779 34.6719 34.0186C33.1484 33.1494 31.9668 31.9238 31.127 30.3418C30.2969 28.75 29.8818 26.8701 29.8818 24.7021V23.9844C29.8818 21.9141 30.2822 20.083 31.083 18.4912C31.8936 16.8896 33.041 15.6348 34.5254 14.7266C36.0195 13.8184 37.8018 13.3643 39.8721 13.3643C41.3076 13.3643 42.6602 13.5693 43.9297 13.9795C45.1992 14.3896 46.332 15.0146 47.3281 15.8545V21.0107H44.1494L43.71 17.7734C43.2217 17.4316 42.6699 17.1631 42.0547 16.9678C41.4395 16.7627 40.7461 16.6602 39.9746 16.6602C38.168 16.6602 36.7471 17.3193 35.7119 18.6377C34.6768 19.9463 34.1592 21.7188 34.1592 23.9551V24.7021C34.1592 26.9482 34.6963 28.7305 35.7705 30.0488C36.8447 31.3672 38.3096 32.0264 40.165 32.0264C40.7803 32.0264 41.3955 31.958 42.0107 31.8213C42.6357 31.6748 43.2021 31.4893 43.71 31.2646L44.1494 28.2617H47.3281V33.3594C46.498 33.9062 45.4629 34.3701 44.2227 34.751C42.9824 35.1221 41.6055 35.3076 40.0918 35.3076ZM56.9668 35.3076C55.3945 35.3076 54.0469 34.9658 52.9238 34.2822C51.8105 33.5986 50.9561 32.6514 50.3604 31.4404C49.7646 30.2197 49.4668 28.8184 49.4668 27.2363V26.9287C49.4668 25.3564 49.7646 23.9648 50.3604 22.7539C50.9561 21.5332 51.8105 20.5811 52.9238 19.8975C54.0469 19.2041 55.3848 18.8574 56.9375 18.8574C58.5 18.8574 59.8379 19.1992 60.9512 19.8828C62.0742 20.5664 62.9336 21.5186 63.5293 22.7393C64.125 23.9502 64.4229 25.3467 64.4229 26.9287V27.2363C64.4229 28.8184 64.125 30.2197 63.5293 31.4404C62.9336 32.6514 62.0791 33.5986 60.9658 34.2822C59.8525 34.9658 58.5195 35.3076 56.9668 35.3076ZM56.9668 32.0264C58.0703 32.0264 58.876 31.5869 59.3838 30.708C59.9014 29.8291 60.1602 28.6719 60.1602 27.2363V26.9287C60.1602 25.5225 59.9014 24.375 59.3838 23.4863C58.8662 22.5977 58.0508 22.1533 56.9375 22.1533C55.8242 22.1533 55.0137 22.5977 54.5059 23.4863C53.998 24.375 53.7441 25.5225 53.7441 26.9287V27.2363C53.7441 28.6816 53.998 29.8438 54.5059 30.7227C55.0137 31.5918 55.834 32.0264 56.9668 32.0264ZM66.1807 35V32.4365L68.2314 31.9971V22.168L65.9609 21.7285V19.1504H72.2158L72.4062 21.4209C72.9336 20.6104 73.583 19.9805 74.3545 19.5312C75.1357 19.082 76.0244 18.8574 77.0205 18.8574C78.583 18.8574 79.8086 19.3604 80.6973 20.3662C81.5957 21.3721 82.0449 22.9492 82.0449 25.0977V31.9971L84.0957 32.4365V35H75.9219V32.4365L77.7529 31.9971V25.1123C77.7529 24.0479 77.5381 23.2959 77.1084 22.8564C76.6885 22.4072 76.0684 22.1826 75.248 22.1826C74.0566 22.1826 73.1436 22.6807 72.5088 23.6768V31.9971L74.2373 32.4365V35H66.1807ZM91.2002 35.3076C89.7256 35.3076 88.5879 34.9023 87.7871 34.0918C86.9961 33.2812 86.6006 31.9971 86.6006 30.2393V22.1533H84.418V19.1504H86.6006V15.2686H90.8633V19.1504H93.7783V22.1533H90.8633V30.2246C90.8633 30.8398 90.9902 31.2793 91.2441 31.543C91.5078 31.8066 91.8643 31.9385 92.3135 31.9385C92.5479 31.9385 92.8018 31.9238 93.0752 31.8945C93.3486 31.8555 93.583 31.8164 93.7783 31.7773L94.1445 34.8682C93.7148 34.9951 93.2412 35.0977 92.7236 35.1758C92.2061 35.2637 91.6982 35.3076 91.2002 35.3076ZM96.0049 35V32.4365L98.0703 31.9971V22.168L95.7852 21.7285V19.1504H102.348V31.9971L104.398 32.4365V35H96.0049ZM97.9238 15.7959V12.1484H102.348V15.7959H97.9238ZM105.673 35V32.4365L107.724 31.9971V22.168L105.453 21.7285V19.1504H111.708L111.898 21.4209C112.426 20.6104 113.075 19.9805 113.847 19.5312C114.628 19.082 115.517 18.8574 116.513 18.8574C118.075 18.8574 119.301 19.3604 120.189 20.3662C121.088 21.3721 121.537 22.9492 121.537 25.0977V31.9971L123.588 32.4365V35H115.414V32.4365L117.245 31.9971V25.1123C117.245 24.0479 117.03 23.2959 116.601 22.8564C116.181 22.4072 115.561 22.1826 114.74 22.1826C113.549 22.1826 112.636 22.6807 112.001 23.6768V31.9971L113.729 32.4365V35H105.673ZM131.044 35.3076C129.364 35.3076 128.051 34.7803 127.104 33.7256C126.156 32.6611 125.683 31.0107 125.683 28.7744V22.168L123.939 21.7285V19.1504H129.96V28.8037C129.96 29.9365 130.155 30.752 130.546 31.25C130.946 31.7383 131.547 31.9824 132.348 31.9824C133.627 31.9824 134.589 31.5039 135.233 30.5469V22.168L133.344 21.7285V19.1504H139.511V31.9971L141.415 32.4365V35H135.761L135.468 32.9932C134.423 34.5361 132.948 35.3076 131.044 35.3076ZM150.6 35.3076C149.076 35.3076 147.748 34.9756 146.615 34.3115C145.492 33.6377 144.618 32.7148 143.993 31.543C143.378 30.3711 143.07 29.0332 143.07 27.5293V26.9434C143.07 25.3711 143.363 23.9795 143.949 22.7686C144.535 21.5479 145.36 20.5908 146.425 19.8975C147.499 19.1943 148.764 18.8477 150.219 18.8574C152.357 18.8574 153.993 19.4873 155.126 20.7471C156.259 21.9971 156.825 23.7549 156.825 26.0205V28.3496H147.509L147.479 28.4375C147.558 29.4824 147.904 30.3418 148.52 31.0156C149.135 31.6895 150.009 32.0264 151.142 32.0264C151.923 32.0264 152.65 31.9287 153.324 31.7334C154.008 31.5283 154.672 31.2305 155.316 30.8398L156.474 33.4766C155.819 34.0039 154.994 34.4434 153.998 34.7949C153.012 35.1367 151.879 35.3076 150.6 35.3076ZM147.538 25.5225H152.826V25.1416C152.826 24.1846 152.626 23.4277 152.226 22.8711C151.835 22.3047 151.19 22.0215 150.292 22.0215C149.433 22.0215 148.778 22.3486 148.329 23.0029C147.88 23.6475 147.602 24.4629 147.494 25.4492L147.538 25.5225Z" fill="#E1E8EB"/>
</svg>
