<svg width="219" height="219" viewBox="0 0 219 219" fill="none" xmlns="http://www.w3.org/2000/svg">
<circle cx="109.5" cy="109.5" r="109.5" fill="#353B41"/>
<circle cx="109.5" cy="109.5" r="109.5" fill="#353B41"/>
<circle cx="109.5" cy="109.5" r="109.5" fill="#353B41"/>
<path d="M170.534 153.179H54.9509C53.108 153.177 51.3413 152.442 50.0382 151.135C48.7351 149.829 48.0021 148.058 48 146.21V76.9234C48.0021 75.0759 48.7351 73.3047 50.0382 71.9983C51.3413 70.6919 53.108 69.957 54.9509 69.9549H170.534C172.377 69.957 174.143 70.6919 175.447 71.9983C176.75 73.3047 177.483 75.0759 177.485 76.9234V146.21C177.483 148.058 176.75 149.829 175.447 151.135C174.143 152.442 172.377 153.177 170.534 153.179ZM54.9509 71.1495C53.4239 71.1513 51.9601 71.7602 50.8804 72.8426C49.8007 73.925 49.1933 75.3926 49.1916 76.9234V146.21C49.1933 147.741 49.8007 149.209 50.8804 150.291C51.9601 151.373 53.4239 151.982 54.9509 151.984H170.534C172.061 151.982 173.525 151.373 174.604 150.291C175.684 149.209 176.291 147.741 176.293 146.21V76.9234C176.291 75.3926 175.684 73.925 174.604 72.8426C173.525 71.7602 172.061 71.1513 170.534 71.1495H54.9509Z" fill="#7953B3"/>
<path d="M70.4415 86.2812C69.4595 86.2812 68.4996 85.9893 67.6831 85.4424C66.8666 84.8954 66.2303 84.118 65.8545 83.2085C65.4787 82.299 65.3804 81.2982 65.572 80.3327C65.7635 79.3671 66.2364 78.4802 66.9308 77.7841C67.6251 77.088 68.5098 76.6139 69.4729 76.4219C70.436 76.2298 71.4342 76.3284 72.3415 76.7051C73.2487 77.0819 74.0241 77.7198 74.5696 78.5384C75.1152 79.3569 75.4064 80.3193 75.4064 81.3037C75.4049 82.6234 74.8813 83.8886 73.9506 84.8217C73.0198 85.7548 71.7578 86.2797 70.4415 86.2812ZM70.4415 77.5208C69.6952 77.5208 68.9656 77.7427 68.3451 78.1584C67.7246 78.574 67.241 79.1648 66.9554 79.8561C66.6698 80.5473 66.595 81.3079 66.7406 82.0417C66.8862 82.7755 67.2456 83.4496 67.7733 83.9786C68.301 84.5077 68.9734 84.868 69.7053 85.0139C70.4373 85.1599 71.196 85.085 71.8855 84.7987C72.575 84.5123 73.1643 84.0275 73.5789 83.4054C73.9935 82.7833 74.2148 82.0519 74.2148 81.3037C74.2137 80.3008 73.8158 79.3393 73.1084 78.6301C72.401 77.9209 71.4419 77.522 70.4415 77.5208Z" fill="#7953B3"/>
<path d="M154.249 86.2812C153.267 86.2812 152.307 85.9893 151.491 85.4424C150.674 84.8954 150.038 84.118 149.662 83.2085C149.286 82.299 149.188 81.2982 149.38 80.3327C149.571 79.3671 150.044 78.4802 150.738 77.7841C151.433 77.088 152.317 76.6139 153.28 76.4219C154.244 76.2298 155.242 76.3284 156.149 76.7051C157.056 77.0819 157.832 77.7198 158.377 78.5384C158.923 79.3569 159.214 80.3193 159.214 81.3037C159.213 82.6234 158.689 83.8886 157.758 84.8217C156.827 85.7548 155.565 86.2797 154.249 86.2812ZM154.249 77.5208C153.503 77.5208 152.773 77.7427 152.153 78.1584C151.532 78.574 151.049 79.1648 150.763 79.8561C150.477 80.5473 150.403 81.3079 150.548 82.0417C150.694 82.7755 151.053 83.4496 151.581 83.9786C152.109 84.5077 152.781 84.868 153.513 85.0139C154.245 85.1599 155.004 85.085 155.693 84.7987C156.383 84.5123 156.972 84.0275 157.386 83.4054C157.801 82.7833 158.022 82.0519 158.022 81.3037C158.021 80.3008 157.623 79.3393 156.916 78.6301C156.209 77.9209 155.249 77.522 154.249 77.5208Z" fill="#7953B3"/>
<path d="M82.1585 116.544H60.7101C59.815 116.543 58.9569 116.186 58.324 115.552C57.6911 114.917 57.335 114.057 57.334 113.16V100.417C57.335 99.5199 57.6911 98.6596 58.324 98.0251C58.9569 97.3905 59.815 97.0336 60.7101 97.0325H82.1585C83.0536 97.0336 83.9117 97.3905 84.5446 98.0251C85.1776 98.6596 85.5336 99.5199 85.5347 100.417V113.16C85.5336 114.057 85.1776 114.917 84.5446 115.552C83.9117 116.186 83.0536 116.543 82.1585 116.544Z" fill="#E6E6E6"/>
<path d="M123.467 116.544H102.018C101.123 116.543 100.265 116.186 99.6321 115.552C98.9992 114.917 98.6432 114.057 98.6421 113.16V100.417C98.6432 99.5199 98.9992 98.6596 99.6321 98.0251C100.265 97.3905 101.123 97.0336 102.018 97.0325H123.467C124.362 97.0336 125.22 97.3905 125.853 98.0251C126.486 98.6596 126.842 99.5199 126.843 100.417V113.16C126.842 114.057 126.486 114.917 125.853 115.552C125.22 116.186 124.362 116.543 123.467 116.544Z" fill="#E6E6E6"/>
<path d="M143.326 97.4308C142.537 97.4317 141.779 97.7466 141.221 98.3065C140.662 98.8664 140.348 99.6255 140.347 100.417V113.16C140.348 113.952 140.662 114.711 141.221 115.271C141.779 115.83 142.537 116.145 143.326 116.146H164.775C165.565 116.145 166.322 115.83 166.88 115.271C167.439 114.711 167.753 113.952 167.754 113.16V100.417C167.753 99.6255 167.439 98.8664 166.88 98.3065C166.322 97.7466 165.565 97.4317 164.775 97.4308H143.326Z" fill="#E6E6E6"/>
<path d="M82.3573 142.029H60.9089C60.0138 142.028 59.1557 141.671 58.5227 141.036C57.8898 140.402 57.5338 139.542 57.5327 138.644V125.902C57.5338 125.005 57.8898 124.144 58.5227 123.51C59.1557 122.875 60.0138 122.518 60.9089 122.517H82.3573C83.2523 122.518 84.1104 122.875 84.7434 123.51C85.3763 124.144 85.7323 125.005 85.7334 125.902V138.644C85.7323 139.542 85.3763 140.402 84.7434 141.036C84.1104 141.671 83.2523 142.028 82.3573 142.029Z" fill="#E6E6E6"/>
<path d="M123.665 142.029H102.217C101.322 142.028 100.464 141.671 99.8306 141.036C99.1977 140.402 98.8416 139.542 98.8406 138.644V125.902C98.8416 125.005 99.1977 124.144 99.8306 123.51C100.464 122.875 101.322 122.518 102.217 122.517H123.665C124.56 122.518 125.418 122.875 126.051 123.51C126.684 124.144 127.04 125.005 127.041 125.902V138.644C127.04 139.542 126.684 140.402 126.051 141.036C125.418 141.671 124.56 142.028 123.665 142.029Z" fill="#E6E6E6"/>
<path d="M164.973 142.029H143.525C142.629 142.028 141.771 141.671 141.138 141.036C140.506 140.402 140.15 139.542 140.148 138.644V125.902C140.15 125.005 140.506 124.144 141.138 123.51C141.771 122.875 142.629 122.518 143.525 122.517H164.973C165.868 122.518 166.726 122.875 167.359 123.51C167.992 124.144 168.348 125.005 168.349 125.902V138.644C168.348 139.542 167.992 140.402 167.359 141.036C166.726 141.671 165.868 142.028 164.973 142.029Z" fill="#E6E6E6"/>
<path d="M70.4414 82.6974C70.0729 82.6969 69.7195 82.5499 69.4589 82.2887C69.1983 82.0274 69.0517 81.6732 69.0513 81.3037V61.3937C69.0513 61.0241 69.1977 60.6696 69.4584 60.4082C69.7191 60.1468 70.0727 60 70.4414 60C70.8101 60 71.1637 60.1468 71.4244 60.4082C71.6851 60.6696 71.8316 61.0241 71.8316 61.3937V81.3037C71.8312 81.6732 71.6846 82.0274 71.424 82.2887C71.1633 82.5499 70.81 82.6969 70.4414 82.6974Z" fill="#7953B3"/>
<path d="M154.249 82.6974C153.88 82.6969 153.527 82.5499 153.266 82.2887C153.006 82.0274 152.859 81.6732 152.859 81.3037V61.3937C152.859 61.0241 153.005 60.6696 153.266 60.4082C153.527 60.1468 153.88 60 154.249 60C154.618 60 154.971 60.1468 155.232 60.4082C155.493 60.6696 155.639 61.0241 155.639 61.3937V81.3037C155.639 81.6732 155.492 82.0274 155.231 82.2887C154.971 82.5499 154.617 82.6969 154.249 82.6974Z" fill="#7953B3"/>
<path d="M70.6237 111.954C70.0389 111.955 69.4696 111.765 69.0017 111.413L68.9727 111.391L62.8636 106.706C62.2922 106.267 61.9182 105.618 61.8239 104.903C61.7296 104.187 61.9228 103.463 62.3609 102.89C62.7989 102.317 63.446 101.943 64.1599 101.848C64.8737 101.753 65.5957 101.947 66.1672 102.386L70.1241 105.428L79.4747 93.1986C79.6915 92.9151 79.9619 92.6771 80.2705 92.4983C80.579 92.3196 80.9197 92.2035 81.273 92.1567C81.6263 92.1099 81.9853 92.1334 82.3295 92.2257C82.6738 92.318 82.9966 92.4774 83.2794 92.6948L83.2802 92.6954L83.2222 92.7761L83.2818 92.6954C83.8523 93.135 84.2256 93.7836 84.3197 94.4989C84.4138 95.2141 84.2211 95.9376 83.7837 96.5105L72.7854 110.889C72.531 111.22 72.2038 111.488 71.8293 111.672C71.4548 111.856 71.0431 111.952 70.626 111.95L70.6237 111.954Z" fill="#FFC107"/>
<path d="M113.123 137.04C112.538 137.041 111.969 136.851 111.501 136.5L111.472 136.478L105.363 131.793C104.792 131.354 104.418 130.705 104.323 129.989C104.229 129.274 104.422 128.55 104.86 127.977C105.298 127.404 105.946 127.029 106.659 126.935C107.373 126.84 108.095 127.034 108.667 127.473L112.624 130.515L121.974 118.285C122.191 118.002 122.461 117.764 122.77 117.585C123.079 117.406 123.419 117.29 123.772 117.243C124.126 117.196 124.485 117.22 124.829 117.312C125.173 117.405 125.496 117.564 125.779 117.781L125.78 117.782L125.722 117.863L125.781 117.782C126.352 118.222 126.725 118.87 126.819 119.585C126.913 120.301 126.721 121.024 126.283 121.597L115.285 135.976C115.03 136.307 114.703 136.575 114.329 136.759C113.954 136.943 113.543 137.038 113.126 137.037L113.123 137.04Z" fill="#FFC107"/>
<path d="M153.24 111.954C152.655 111.955 152.086 111.765 151.618 111.413L151.589 111.391L145.48 106.706C144.908 106.267 144.534 105.618 144.44 104.903C144.346 104.187 144.539 103.463 144.977 102.89C145.415 102.317 146.062 101.943 146.776 101.848C147.49 101.753 148.212 101.947 148.783 102.386L152.74 105.428L162.091 93.1986C162.307 92.9151 162.578 92.6771 162.886 92.4983C163.195 92.3196 163.536 92.2035 163.889 92.1567C164.242 92.1099 164.601 92.1334 164.946 92.2257C165.29 92.318 165.613 92.4774 165.895 92.6948L165.896 92.6954L165.838 92.7761L165.898 92.6954C166.468 93.135 166.842 93.7836 166.936 94.4989C167.03 95.2141 166.837 95.9376 166.4 96.5105L155.401 110.889C155.147 111.22 154.82 111.488 154.445 111.672C154.071 111.856 153.659 111.952 153.242 111.95L153.24 111.954Z" fill="#FFC107"/>
</svg>
