<svg width="219" height="219" viewBox="0 0 219 219" fill="none" xmlns="http://www.w3.org/2000/svg">
<circle cx="109.5" cy="109.5" r="109.5" fill="#353B41"/>
<circle cx="109.5" cy="109.5" r="109.5" fill="#353B41"/>
<circle cx="109.5" cy="109.5" r="109.5" fill="#353B41"/>
<g clip-path="url(#clip0_36_2)">
<path d="M34.6733 99.1785H85.6539C86.3176 99.1785 86.9541 99.441 87.4234 99.9083C87.8928 100.376 88.1564 101.009 88.1564 101.67V105.628H32.1708V101.67C32.1708 101.009 32.4344 100.376 32.9038 99.9083C33.3731 99.441 34.0096 99.1785 34.6733 99.1785Z" fill="#3F3D56"/>
<path d="M84.6862 98.7179C84.4343 98.719 84.1843 98.7613 83.9463 98.8433C83.8646 98.5162 83.6655 98.2301 83.3865 98.0392C83.1075 97.8483 82.768 97.7656 82.432 97.8069C82.096 97.8481 81.7868 98.0104 81.5628 98.2631C81.3388 98.5158 81.2154 98.8415 81.216 99.1785C81.216 99.1854 81.2177 99.1918 81.2179 99.1987C81.0444 99.215 80.8732 99.2504 80.7074 99.304C80.6604 99.118 80.5752 98.9437 80.457 98.7922C80.3389 98.6406 80.1906 98.5151 80.0213 98.4236C80.466 98.1788 80.8177 97.7955 81.0225 97.3324C82.1546 97.3141 83.0668 96.4993 83.0668 95.4931C83.0668 94.4753 82.1346 93.6503 80.9847 93.6503C80.7328 93.6514 80.4828 93.6938 80.2448 93.7758C80.202 93.5946 80.1229 93.4239 80.0121 93.274C79.9013 93.1241 79.7612 92.9981 79.6001 92.9037C79.4391 92.8092 79.2605 92.7482 79.0751 92.7244C78.8897 92.7005 78.7014 92.7143 78.5215 92.7649C78.3416 92.8156 78.1739 92.902 78.0285 93.0189C77.8831 93.1358 77.763 93.2809 77.6755 93.4453C77.5879 93.6098 77.5347 93.7902 77.5192 93.9756C77.5036 94.1611 77.5259 94.3478 77.5848 94.5244C77.5294 94.5627 77.4778 94.6058 77.4261 94.6486C77.1644 94.4243 76.8245 94.3117 76.48 94.335C76.302 93.8263 75.95 93.3961 75.4855 93.1198C75.0209 92.8435 74.4736 92.7388 73.9393 92.824C73.4051 92.9092 72.918 93.1789 72.5633 93.5857C72.2087 93.9926 72.0091 94.5107 71.9997 95.0494C71.814 95.064 71.6307 95.1004 71.4536 95.1578C71.4337 95.0799 71.407 95.0038 71.3738 94.9304C71.5565 94.77 71.7032 94.5732 71.8046 94.3526C71.906 94.1321 71.9597 93.8928 71.9622 93.6503C71.9622 92.6326 71.03 91.8076 69.8801 91.8076C69.6282 91.8087 69.3782 91.8511 69.1402 91.933C69.0975 91.7518 69.0183 91.5811 68.9075 91.4313C68.7967 91.2814 68.6566 91.1554 68.4955 91.0609C68.3345 90.9665 68.1559 90.9055 67.9705 90.8816C67.7851 90.8578 67.5968 90.8716 67.4169 90.9222C67.2371 90.9728 67.0694 91.0592 66.9239 91.1762C66.7785 91.2931 66.6584 91.4382 66.5709 91.6026C66.4833 91.767 66.4302 91.9474 66.4146 92.1329C66.399 92.3183 66.4213 92.505 66.4802 92.6817C66.1888 92.8831 65.948 93.1487 65.7765 93.4579C65.605 93.767 65.5074 94.1113 65.4913 94.4641C65.4717 94.4815 65.4493 94.4955 65.4307 94.5139C65.4653 94.3823 65.4834 94.247 65.4845 94.111C65.4845 93.0933 64.5523 92.2683 63.4024 92.2683C63.1505 92.2694 62.9005 92.3118 62.6625 92.3937C62.6198 92.2125 62.5406 92.0418 62.4298 91.8919C62.319 91.7421 62.1789 91.6161 62.0178 91.5216C61.8568 91.4271 61.6782 91.3661 61.4928 91.3423C61.3074 91.3185 61.1191 91.3323 60.9393 91.3829C60.7594 91.4335 60.5917 91.5199 60.4463 91.6368C60.3009 91.7538 60.1808 91.8989 60.0932 92.0633C60.0057 92.2277 59.9525 92.4081 59.9369 92.5936C59.9213 92.779 59.9436 92.9657 60.0025 93.1423C59.6953 93.3537 59.4443 93.6361 59.2709 93.9653C59.0974 94.2945 59.0069 94.6606 59.0069 95.0324C59.0069 95.4041 59.0974 95.7703 59.2709 96.0995C59.4443 96.4287 59.6953 96.7111 60.0025 96.9224C59.9088 97.1901 59.9088 97.4815 60.0025 97.7492C59.7706 97.9103 59.5701 98.1119 59.4105 98.3443C59.3249 98.0349 59.1331 97.7651 58.8685 97.5818C58.6038 97.3985 58.2831 97.3133 57.9619 97.3409C57.6408 97.3685 57.3394 97.5073 57.1103 97.7331C56.8812 97.9589 56.7388 98.2574 56.7077 98.5769C56.5222 98.4687 56.3218 98.3881 56.1128 98.3376C56.4876 98.0913 56.7828 97.7421 56.9626 97.3324C58.0946 97.3141 59.0068 96.4993 59.0068 95.4931C59.0068 94.4753 58.0747 93.6503 56.9247 93.6503C56.6728 93.6514 56.4229 93.6938 56.1848 93.7758C56.1421 93.5946 56.063 93.4239 55.9522 93.274C55.8414 93.1241 55.7012 92.9981 55.5402 92.9037C55.3791 92.8092 55.2005 92.7482 55.0151 92.7244C54.8297 92.7005 54.6414 92.7143 54.4616 92.7649C54.2817 92.8156 54.114 92.902 53.9686 93.0189C53.8232 93.1358 53.7031 93.2809 53.6155 93.4453C53.528 93.6098 53.4748 93.7902 53.4592 93.9756C53.4436 94.1611 53.4659 94.3478 53.5248 94.5244C53.4951 94.5449 53.4684 94.5691 53.4397 94.591C53.3675 94.5843 53.2974 94.5717 53.2232 94.5717C52.9713 94.5728 52.7213 94.6152 52.4833 94.6971C52.4745 94.6624 52.4601 94.6301 52.4488 94.5965C52.4936 94.3914 52.4901 94.1787 52.4384 93.9752C52.3867 93.7718 52.2884 93.583 52.1511 93.4237C52.0138 93.2644 51.8413 93.1391 51.6471 93.0574C51.4529 92.9757 51.2423 92.94 51.0319 92.953C50.9115 92.6189 50.715 92.3171 50.4579 92.0712C50.2009 91.8253 49.8901 91.6419 49.5501 91.5355C49.21 91.429 48.8498 91.4023 48.4976 91.4574C48.1454 91.5126 47.8109 91.6481 47.52 91.8533C47.2292 92.0586 46.99 92.3281 46.8212 92.6407C46.6523 92.9533 46.5584 93.3006 46.5467 93.6553C46.535 94.0101 46.6059 94.3627 46.7539 94.6857C46.9018 95.0086 47.1228 95.2931 47.3995 95.5169C47.2403 95.5351 47.0833 95.5691 46.931 95.6185C46.8763 95.3939 46.7654 95.1867 46.6086 95.0163C46.4518 94.8458 46.2543 94.7177 46.0344 94.6437C45.8144 94.5697 45.5793 94.5524 45.3508 94.5933C45.1224 94.6342 44.908 94.7319 44.7277 94.8775C44.5215 94.6337 44.2635 94.4384 43.9724 94.3059C43.6812 94.1733 43.3641 94.1068 43.044 94.111C42.7921 94.1121 42.5421 94.1545 42.3041 94.2364C42.2613 94.0553 42.1822 93.8846 42.0714 93.7347C41.9606 93.5848 41.8205 93.4588 41.6594 93.3643C41.4984 93.2699 41.3198 93.2089 41.1344 93.185C40.949 93.1612 40.7607 93.175 40.5808 93.2256C40.401 93.2763 40.2332 93.3626 40.0878 93.4796C39.9424 93.5965 39.8223 93.7416 39.7348 93.906C39.6472 94.0705 39.5941 94.2508 39.5785 94.4363C39.5629 94.6218 39.5852 94.8084 39.6441 94.9851C39.337 95.1965 39.086 95.4789 38.9125 95.8081C38.7391 96.1372 38.6485 96.5034 38.6484 96.8751C38.6484 96.8823 38.6505 96.8888 38.6505 96.8959C38.3224 96.8464 37.9871 96.8825 37.6771 97.0005C37.6344 96.8194 37.5553 96.6487 37.4445 96.4988C37.3337 96.3489 37.1935 96.2229 37.0325 96.1285C36.8714 96.034 36.6928 95.973 36.5075 95.9492C36.3221 95.9253 36.1338 95.9391 35.9539 95.9898C35.774 96.0404 35.6063 96.1268 35.4609 96.2437C35.3155 96.3606 35.1954 96.5057 35.1079 96.6701C35.0203 96.8346 34.9672 97.015 34.9516 97.2004C34.936 97.3859 34.9583 97.5726 35.0172 97.7492C34.5709 98.05 34.2447 98.4969 34.0952 99.0124C33.9457 99.5279 33.9824 100.079 34.1989 100.571C34.4154 101.062 34.798 101.462 35.2802 101.702C35.7624 101.941 36.3136 102.005 36.8381 101.881C36.9216 102.362 37.1567 102.804 37.5094 103.142C37.862 103.481 38.3138 103.699 38.7992 103.764C39.2847 103.83 39.7785 103.74 40.2091 103.507C40.6397 103.275 40.9846 102.912 41.1939 102.471C41.3834 102.87 41.6845 103.206 42.0612 103.439C42.4378 103.672 42.874 103.793 43.3175 103.785C43.7609 103.778 44.1928 103.643 44.5614 103.397C44.9299 103.152 45.2194 102.805 45.3953 102.4C45.6679 102.396 45.9377 102.344 46.1921 102.246C46.345 102.683 46.6267 103.063 47.0003 103.337C47.3738 103.612 47.8219 103.767 48.2858 103.784C48.7497 103.801 49.2078 103.677 49.6002 103.43C49.9926 103.183 50.3009 102.824 50.4849 102.4C50.8223 102.393 51.1538 102.312 51.4554 102.161C51.6665 102.532 51.9776 102.838 52.3537 103.043C52.7297 103.248 53.1558 103.344 53.5839 103.321C54.0121 103.298 54.4252 103.157 54.7769 102.913C55.1286 102.668 55.4048 102.331 55.5745 101.939C55.6987 101.936 55.8224 101.923 55.9445 101.901C56.1176 102.319 56.4106 102.677 56.7869 102.93C57.1631 103.183 57.606 103.32 58.0601 103.325C58.5143 103.329 58.9596 103.2 59.3404 102.953C59.7212 102.707 60.0207 102.354 60.2014 101.939C60.3832 101.934 60.5636 101.908 60.7391 101.86C61.2041 101.989 61.6984 101.966 62.1493 101.795C62.6003 101.624 62.9841 101.313 63.2443 100.908C63.099 101.469 63.1713 102.064 63.447 102.574C63.7227 103.084 64.1814 103.472 64.7317 103.66C65.282 103.849 65.8834 103.824 66.4158 103.59C66.9483 103.356 67.3728 102.931 67.6045 102.4C67.9418 102.393 68.2734 102.312 68.575 102.161C68.7861 102.532 69.0972 102.838 69.4733 103.043C69.8493 103.248 70.2754 103.344 70.7035 103.321C71.1317 103.298 71.5448 103.157 71.8965 102.913C72.2482 102.668 72.5244 102.331 72.6941 101.939C73.0315 101.933 73.363 101.851 73.6646 101.7C73.8273 101.989 74.0512 102.239 74.3207 102.433C74.5903 102.626 74.899 102.759 75.2254 102.822C75.5518 102.885 75.888 102.877 76.2108 102.797C76.5335 102.718 76.835 102.569 77.0943 102.362C77.1746 102.803 77.3828 103.21 77.6931 103.535C78.0034 103.859 78.4023 104.086 78.8405 104.187C79.2787 104.288 79.7371 104.259 80.159 104.104C80.581 103.949 80.9481 103.674 81.2151 103.313C81.4927 103.525 81.8153 103.671 82.1583 103.74C82.5012 103.809 82.8554 103.799 83.1939 103.711C83.5324 103.623 83.8462 103.459 84.1114 103.232C84.3765 103.005 84.5861 102.72 84.7241 102.4C85.8561 102.382 86.7683 101.567 86.7683 100.561C86.7683 99.5429 85.8361 98.7179 84.6862 98.7179ZM43.3317 97.7671C43.3293 97.7782 43.3276 97.7896 43.3253 97.8008C43.3084 97.8001 43.2924 97.7965 43.2753 97.7965C43.2062 97.7982 43.1373 97.8051 43.0692 97.8172C43.0729 97.8089 43.0782 97.8015 43.0819 97.7931C43.1656 97.789 43.249 97.7803 43.3317 97.7671ZM62.6625 97.0005C62.6557 96.9737 62.6442 96.9491 62.6359 96.9229C62.9892 96.679 63.2676 96.3424 63.4403 95.9504C63.7445 95.9488 64.045 95.8833 64.3222 95.7584C64.5994 95.6334 64.847 95.4517 65.049 95.2251C65.0312 95.3133 65.0221 95.4031 65.0218 95.4931C65.0238 95.6336 65.0475 95.7731 65.0921 95.9065C64.6948 96.1822 64.3941 96.5748 64.232 97.0291C63.7289 96.8341 63.1724 96.824 62.6625 97.0006V97.0005ZM76.5203 97.1723C76.5193 97.1441 76.5229 97.115 76.521 97.087C76.58 97.0867 76.6389 97.0828 76.6973 97.075C76.7871 97.3731 76.9371 97.6497 77.1381 97.888C77.0944 97.9002 77.0484 97.9076 77.0059 97.9219C76.9312 97.6257 76.7605 97.3622 76.5203 97.1723Z" fill="#F9A825"/>
<path d="M36.8316 101.482C36.1753 101.482 35.5259 101.615 34.9229 101.873C34.32 102.131 33.7762 102.509 33.3248 102.983C32.8733 103.458 32.5237 104.018 32.2971 104.632C32.0706 105.245 31.972 105.898 32.0072 106.55L35.1403 149.447C35.2064 150.677 35.7435 151.834 36.641 152.681C37.5385 153.528 38.7281 154 39.9647 154H80.3625C81.5991 154 82.7887 153.528 83.6862 152.681C84.5837 151.834 85.1208 150.677 85.1869 149.447L88.32 106.55C88.3553 105.898 88.2566 105.245 88.0301 104.632C87.8036 104.018 87.4539 103.458 87.0025 102.983C86.551 102.509 86.0072 102.131 85.4043 101.873C84.8014 101.615 84.1519 101.482 83.4956 101.482H36.8316Z" fill="#7953B3"/>
<path d="M41.8874 101.482H39.1112V154H41.8874V101.482Z" fill="#FFC107"/>
<path d="M49.753 101.482H46.9768V154H49.753V101.482Z" fill="#FFC107"/>
<path d="M57.6188 101.482H54.8427V154H57.6188V101.482Z" fill="#FFC107"/>
<path d="M65.4845 101.482H62.7084V154H65.4845V101.482Z" fill="#FFC107"/>
<path d="M73.3504 101.482H70.5742V154H73.3504V101.482Z" fill="#FFC107"/>
<path d="M81.2161 101.482H78.4399V154H81.2161V101.482Z" fill="#FFC107"/>
<path d="M126.508 79.9515L125.298 77.0166L109.162 83.6126C108.796 83.7621 108.484 84.0164 108.264 84.3431C108.044 84.6698 107.927 85.0542 107.927 85.4475V102.806H111.114V86.2484L126.508 79.9515Z" fill="#7953B3"/>
<path d="M124.435 73.8272H120.96V84.7854H124.435V73.8272Z" fill="#FFC107"/>
<path d="M118.933 76.1338H115.458V87.092H118.933V76.1338Z" fill="#FFC107"/>
<path d="M113.573 85.5063L111.112 86.2271L110.099 74.5481H113.573V85.5063Z" fill="#FFC107"/>
<path d="M115.601 86.8037H104.595V90.2636H115.601V86.8037Z" fill="#FFC107"/>
<path d="M115.602 91.5629H104.596V95.0229H115.602V91.5629Z" fill="#FFC107"/>
<path d="M115.601 96.3221H104.595V99.782H115.601V96.3221Z" fill="#FFC107"/>
<path d="M120.96 154H99.6716L94.4573 102.089H125.595L120.96 154Z" fill="#7953B3"/>
<path d="M127.911 101.224H92.2855V104.684H127.911V101.224Z" fill="#7953B3"/>
<path d="M157.938 101.458C168.044 101.458 176.236 93.2965 176.236 83.2289C176.236 73.1614 168.044 65 157.938 65C147.831 65 139.639 73.1614 139.639 83.2289C139.639 93.2965 147.831 101.458 157.938 101.458Z" fill="#3AD29F"/>
<path d="M168.701 83.2289L152.556 90.7349V83.2289V75.7229L168.701 83.2289Z" fill="white"/>
<path d="M162.053 138.828C161.913 138.828 161.78 138.883 161.681 138.981C161.582 139.079 161.526 139.213 161.526 139.352V153.476C161.526 153.615 161.582 153.748 161.681 153.846C161.78 153.945 161.913 154 162.053 154H186.473C186.613 154 186.747 153.945 186.845 153.846C186.944 153.748 187 153.615 187 153.476V139.352C187 139.213 186.944 139.079 186.845 138.981C186.747 138.883 186.613 138.828 186.473 138.828H162.053Z" fill="#7953B3"/>
<path d="M164.782 140.073C164.522 140.073 164.273 140.176 164.089 140.36C163.905 140.543 163.801 140.791 163.801 141.05V151.778C163.801 152.037 163.905 152.285 164.089 152.468C164.273 152.651 164.522 152.754 164.782 152.754H183.744C184.004 152.754 184.254 152.651 184.438 152.468C184.622 152.285 184.725 152.037 184.725 151.778V141.05C184.725 140.791 184.622 140.543 184.438 140.36C184.254 140.176 184.004 140.073 183.744 140.073L164.782 140.073Z" fill="#FF6584"/>
<path d="M162.327 143.48H149.607V146.414H162.327V143.48Z" fill="#7953B3"/>
<path d="M127.472 138.828C127.332 138.828 127.199 138.883 127.1 138.981C127.001 139.08 126.946 139.213 126.946 139.352V153.476C126.946 153.615 127.001 153.748 127.1 153.846C127.199 153.944 127.332 154 127.472 154H151.893C152.032 154 152.166 153.944 152.265 153.846C152.363 153.748 152.419 153.615 152.419 153.476V139.352C152.419 139.213 152.363 139.08 152.265 138.981C152.166 138.883 152.032 138.828 151.893 138.828H127.472Z" fill="#7953B3"/>
<path d="M130.201 140.073C129.941 140.073 129.692 140.176 129.508 140.359C129.324 140.543 129.22 140.791 129.22 141.05V151.778C129.22 152.037 129.324 152.285 129.508 152.468C129.692 152.651 129.941 152.754 130.201 152.754H149.163C149.423 152.754 149.673 152.651 149.857 152.468C150.041 152.285 150.144 152.037 150.145 151.778V141.05C150.144 140.791 150.041 140.543 149.857 140.359C149.673 140.176 149.423 140.073 149.163 140.073L130.201 140.073Z" fill="#FFC107"/>
</g>
<defs>
<clipPath id="clip0_36_2">
<rect width="155" height="89" fill="white" transform="translate(32 65)"/>
</clipPath>
</defs>
</svg>
