<svg width="25" height="25" viewBox="0 0 25 25" fill="none" xmlns="http://www.w3.org/2000/svg">
<path d="M20.2552 9.71649L18.1416 22.3349C18.0733 22.7084 17.7484 22.9802 17.3687 22.9816H7.65253C7.27287 22.9802 6.94795 22.7084 6.87965 22.3349L4.76606 9.71649C4.69634 9.28651 4.98846 8.88146 5.41827 8.81175C5.45818 8.80528 5.49856 8.80197 5.53894 8.80165H19.4665C19.902 8.79597 20.2596 9.14456 20.2653 9.58005C20.2659 9.62579 20.2624 9.67138 20.2552 9.71649ZM21.1858 6.43569C21.1858 6.87119 20.8326 7.22435 20.3972 7.22435H4.6241C4.18861 7.22435 3.83545 6.87119 3.83545 6.43569C3.83545 6.0002 4.18861 5.64704 4.6241 5.64704H8.56736V3.28108C8.56736 2.84559 8.92052 2.49243 9.35602 2.49243H15.6652C16.1007 2.49243 16.4539 2.84559 16.4539 3.28108V5.64704H20.3972C20.8326 5.64704 21.1858 6.0002 21.1858 6.43569ZM14.8766 5.64704V4.06974H10.1447V5.64704H14.8766Z" fill="#E1E8EB"/>
</svg>
